<?xml version="1.0" standalone="no"?>
<!DOCTYPE svg PUBLIC "-//W3C//DTD SVG 1.1//EN" "http://www.w3.org/Graphics/SVG/1.1/DTD/svg11.dtd" >
<svg xmlns="http://www.w3.org/2000/svg">
<metadata></metadata>
<defs>
<font id="novecento_sans_widebook" horiz-adv-x="1368" >
<font-face units-per-em="2048" ascent="1681" descent="-367" />
<missing-glyph horiz-adv-x="512" />
<glyph horiz-adv-x="2048" />
<glyph horiz-adv-x="2048" />
<glyph unicode="&#xd;" horiz-adv-x="681" />
<glyph unicode=" "  horiz-adv-x="512" />
<glyph unicode="&#x09;" horiz-adv-x="512" />
<glyph unicode="&#xa0;" horiz-adv-x="512" />
<glyph unicode="!" horiz-adv-x="487" d="M152 68q0 39 24.5 62.5t67.5 23.5q45 0 68.5 -25t23.5 -61q0 -39 -24.5 -63.5t-67.5 -24.5t-67.5 25.5t-24.5 62.5zM184 309v1125h119v-1125h-119z" />
<glyph unicode="&#x22;" horiz-adv-x="567" d="M100 1434h113l-8 -459h-99zM348 1434h115l-8 -459h-99z" />
<glyph unicode="#" horiz-adv-x="1351" d="M84 242l29 102h213l125 463h-209l26 102h209l66 238h100l-65 -238h372l64 238h102l-65 -238h217l-29 -102h-215l-125 -463h211l-27 -102h-213l-63 -242h-102l65 242h-373l-63 -242h-101l64 242h-213zM428 344h371l123 463h-371z" />
<glyph unicode="$" horiz-adv-x="952" d="M76 285l104 26q14 -115 97 -178t217 -63q125 0 197.5 59t72.5 166q0 86 -55.5 141.5t-107.5 71.5t-163 41q-18 4 -26 6q-66 14 -107 29.5t-95 48.5t-82 91t-28 138q0 131 85 212t235 93v164h98v-164q293 -18 350 -274l-104 -29q-47 211 -287 211q-127 0 -196.5 -57 t-69.5 -152q0 -106 72.5 -152t220.5 -77q63 -14 99 -23.5t95.5 -36t92 -58.5t59.5 -89t27 -131q0 -143 -92.5 -227t-249.5 -95v-161h-97v161q-319 25 -362 308z" />
<glyph unicode="%" horiz-adv-x="1435" d="M72 805q0 362 254 362t254 -362q0 -361 -254 -361t-254 361zM158 804.5q0 -276.5 168 -276.5q170 0 170 277q0 145 -42 210.5t-128 65.5q-168 0 -168 -276.5zM477 0l387 1147h90l-387 -1147h-90zM856 348q0 365 254 365t254 -365q0 -362 -254 -362t-254 362zM940 348 q0 -276 170 -276q168 0 168 276.5t-168 276.5q-86 0 -128 -65.5t-42 -211.5z" />
<glyph unicode="&#x26;" horiz-adv-x="1245" d="M119 305q0 121 69.5 198t173.5 93v4q-92 18 -160.5 88t-68.5 189q0 139 101.5 215.5t289.5 76.5q397 0 471 -307l-104 -28q-61 238 -359 237q-283 0 -282 -201q0 -98 74.5 -160.5t214.5 -62.5h647v-102l-185 -2v-168q0 -197 -115.5 -298.5t-332.5 -101.5 q-211 0 -322.5 89.5t-111.5 240.5zM233 311q0 -113 81 -175t239 -62q334 0 334 301v170h-350q-137 0 -220.5 -59.5t-83.5 -174.5z" />
<glyph unicode="'" horiz-adv-x="317" d="M100 1434h113l-8 -459h-99z" />
<glyph unicode="(" horiz-adv-x="696" d="M119 598q0 848 510 1032l39 -108q-434 -150 -435 -924q0 -399 109 -623.5t326 -300.5l-39 -106q-510 180 -510 1030z" />
<glyph unicode=")" horiz-adv-x="696" d="M31 -326q215 76 323.5 300.5t108.5 623.5t-108.5 624.5t-323.5 301.5l39 106q510 -184 510 -1032q0 -850 -510 -1030z" />
<glyph unicode="*" horiz-adv-x="1017" d="M170 1153l27 82l268 -82v281h88v-281l268 82l27 -82l-266 -84l163 -233l-71 -52l-166 234l-164 -234l-72 52l164 233z" />
<glyph unicode="+" d="M301 545v102h328v348h110v-348h326v-102h-326v-350h-110v350h-328z" />
<glyph unicode="," horiz-adv-x="423" d="M100 -162q49 18 81 65.5t36 88.5q-37 -8 -61.5 13.5t-24.5 58t24.5 60t65.5 23.5q45 0 71.5 -29.5t26.5 -82.5q0 -70 -46 -144.5t-123 -103.5z" />
<glyph unicode="-" horiz-adv-x="1196" d="M215 545v102h764v-102h-764z" />
<glyph unicode="." horiz-adv-x="423" d="M119 67.5q0 36.5 25.5 61.5t68.5 25t67.5 -25t24.5 -61q0 -39 -25.5 -63.5t-66.5 -24.5q-45 0 -69.5 25.5t-24.5 62z" />
<glyph unicode="/" horiz-adv-x="960" d="M53 0l729 1434h125l-727 -1434h-127z" />
<glyph unicode="0" horiz-adv-x="1054" d="M80 573.5q0 286.5 114.5 441t333.5 154.5q217 0 333 -154.5t116 -441t-117 -442.5t-332 -156q-219 0 -333.5 156t-114.5 442.5zM193 573q0 -492 335 -491q334 0 334 491q0 490 -334 490q-336 0 -335 -490z" />
<glyph unicode="1" horiz-adv-x="669" d="M90 862l299 285h107v-1147h-115v831q0 37 2 84.5t4 75.5l2 27h-4l-16 -19q-18 -20 -39 -43.5t-31 -31.5l-139 -142z" />
<glyph unicode="2" horiz-adv-x="991" d="M96 862q18 156 129 231.5t271 75.5q186 0 289.5 -97t103.5 -257q0 -119 -65.5 -208t-227.5 -216l-358 -285l2 -4h22q23 0 63 1t85 1h485v-104h-793v127l424 334q133 106 190.5 185t57.5 169q0 109 -74.5 181.5t-214.5 72.5q-137 0 -206.5 -67.5t-75.5 -167.5z" />
<glyph unicode="3" horiz-adv-x="985" d="M80 305l100 29q20 -121 107.5 -188.5t218.5 -67.5q139 0 213 71.5t74 180.5q0 111 -78 167t-215 56h-109v92h107q283 0 282 211q0 104 -71.5 159.5t-204.5 55.5q-154 0 -218.5 -65.5t-78.5 -171.5l-103 28q23 158 133.5 232.5t278.5 74.5q186 0 281.5 -80.5t95.5 -214.5 q0 -113 -65.5 -184.5t-161.5 -85.5v-8q106 -12 172.5 -85t66.5 -194q0 -154 -111.5 -248t-289.5 -94q-172 0 -287 91.5t-137 238.5z" />
<glyph unicode="4" horiz-adv-x="1052" d="M70 315v107l553 725h163v-731h172v-101h-172v-315h-112v315h-604zM180 418l2 -2h205h287v370v261h-4z" />
<glyph unicode="5" horiz-adv-x="1024" d="M96 299l101 25q20 -117 108 -182.5t211 -65.5q133 0 218 77.5t85 211.5q0 131 -86 208.5t-227 77.5q-113 0 -183.5 -45t-97.5 -104l-94 26l105 619h618v-107h-541l-37 -227q-8 -49 -17 -95t-14 -67.5t-5 -23.5l4 -2q33 45 109.5 82.5t178.5 37.5q176 0 287 -105t111 -278 q0 -174 -115 -280.5t-297 -106.5q-162 0 -276.5 87.5t-145.5 236.5z" />
<glyph unicode="6" horiz-adv-x="1011" d="M80 381q0 186 143 375l305 391h127l-397 -514l4 -2q96 113 268 112q174 0 286 -104t112 -268q0 -174 -119 -285t-307 -111q-186 0 -304 110t-118 296zM193 371q0 -133 84.5 -213t226 -80t227.5 80t86 215q2 129 -83 206.5t-230 77.5q-143 0 -227 -77.5t-84 -208.5z" />
<glyph unicode="7" horiz-adv-x="937" d="M61 1040v107h828v-88l-596 -1059h-121l502 893q20 35 42.5 70.5t35.5 56.5l12 18l-4 2h-148h-551z" />
<glyph unicode="8" horiz-adv-x="1017" d="M80 307q0 127 82 204t194 89v4q-70 8 -147.5 78t-77.5 186q0 127 101.5 214t275.5 87t276.5 -87t102.5 -212q0 -117 -78 -187.5t-147 -78.5v-4q111 -12 193.5 -89t82.5 -204q0 -150 -115.5 -241t-312.5 -91t-313.5 91t-116.5 241zM188 313q0 -115 86 -179t233.5 -64 t233.5 64.5t86 178.5q0 111 -85 172.5t-234.5 61.5t-234.5 -61.5t-85 -172.5zM233 862q0 -100 78 -157.5t197 -55.5q125 2 200.5 61.5t75.5 153.5q0 96 -74.5 155.5t-201.5 59.5t-201 -60.5t-74 -156.5z" />
<glyph unicode="9" horiz-adv-x="1030" d="M86 774q0 174 120 284.5t308 110.5q186 0 308 -107.5t122 -295.5q0 -121 -55 -230.5t-180 -254.5l-244 -281h-131l430 504l-2 2q-106 -113 -277 -113q-180 0 -289.5 106.5t-109.5 274.5zM197 770q0 -145 90 -217t227 -72q139 0 228 75t89 218q0 145 -91 220t-226 75 t-226 -75.5t-91 -223.5z" />
<glyph unicode=":" horiz-adv-x="423" d="M119 67.5q0 36.5 25.5 61.5t68.5 25t67.5 -25t24.5 -61q0 -39 -25.5 -63.5t-66.5 -24.5q-45 0 -69.5 25.5t-24.5 62zM119 791q0 37 25.5 61.5t68.5 24.5t67.5 -25t24.5 -61q0 -39 -24.5 -64t-67.5 -25q-45 0 -69.5 25t-24.5 64z" />
<glyph unicode=";" horiz-adv-x="423" d="M100 -162q49 18 81 65.5t36 88.5q-39 -6 -62.5 14.5t-23.5 57t24.5 60t65.5 23.5q45 0 71.5 -29.5t26.5 -82.5q0 -70 -46 -144.5t-123 -103.5zM119 791q0 37 25.5 61.5t68.5 24.5t67.5 -25t24.5 -61q0 -39 -24.5 -64t-67.5 -25q-45 0 -69.5 25t-24.5 64z" />
<glyph unicode="&#x3c;" d="M184 547v100l924 459v-113l-799 -393v-6l799 -393v-111z" />
<glyph unicode="=" d="M301 373v102h764v-102h-764zM301 721v102h764v-102h-764z" />
<glyph unicode="&#x3e;" d="M260 90v111l799 393v6l-799 393v113l924 -459v-100z" />
<glyph unicode="?" horiz-adv-x="1146" d="M84 1085q45 184 177 280.5t335 96.5q233 0 349 -114.5t116 -274.5q0 -90 -37 -166t-106.5 -130t-141 -91t-168.5 -72v-305h-123v367q252 92 353.5 178t101.5 205t-82 204t-270 85q-315 0 -393 -291zM451 67.5q0 36.5 25.5 61.5t68.5 25t67.5 -25t24.5 -61 q0 -39 -24.5 -63.5t-67.5 -24.5q-45 0 -69.5 25.5t-24.5 62z" />
<glyph unicode="@" horiz-adv-x="1607" d="M84 543q0 319 204 530t517 211q315 0 517 -210t202 -527q0 -182 -75 -291t-210 -109q-80 0 -139.5 45.5t-71.5 120.5h-4q-31 -76 -101.5 -121t-162.5 -45q-137 0 -235.5 99.5t-98.5 269.5t91 275.5t239 105.5q80 0 139 -31.5t79.5 -57.5t31.5 -50h4v106h112v-442 q0 -180 127 -180q86 0 133.5 83t47.5 226q0 285 -174.5 465t-451 180t-451.5 -183.5t-175 -473.5q0 -299 165 -476.5t435 -177.5q55 0 106.5 6.5t89.5 15.5t74.5 22.5t60.5 25.5t47.5 27.5t34.5 23.5t23 19l13 12l69 -55q-86 -90 -233.5 -136.5t-280.5 -46.5 q-315 0 -506.5 202t-191.5 542zM539 518q0 -127 64.5 -198.5t168.5 -71.5q109 0 168 68.5t70 179.5v51q0 113 -65.5 181.5t-172.5 68.5q-113 0 -173 -76t-60 -203z" />
<glyph unicode="A" horiz-adv-x="1482" d="M53 0l627 1434h125l625 -1434h-127l-183 420h-760l-182 -420h-125zM408 528h667l-174 400q-25 55 -64.5 150.5t-66.5 158.5l-27 61h-4l-26 -61q-27 -61 -68 -157.5t-63 -149.5z" />
<glyph unicode="B" horiz-adv-x="1271" d="M170 0v1434h485q195 0 311.5 -97.5t116.5 -251.5q0 -135 -69.5 -212.5t-165.5 -100.5v-6q55 -6 110.5 -29.5t109.5 -64.5t88 -113t34 -164q0 -186 -127 -290.5t-354 -104.5h-539zM287 104h418q168 0 265 74t97 219.5t-106.5 228.5t-260.5 83h-413v-605zM287 805h366 q139 0 225.5 68.5t86.5 197.5q0 119 -88.5 188.5t-241.5 69.5h-348v-524z" />
<glyph unicode="C" horiz-adv-x="1585" d="M84 721q0 336 208 538.5t527 202.5q236 0 406 -109.5t241 -275.5l-114 -33q-23 45 -57.5 89.5t-97 97.5t-161 86t-217.5 33q-274 0 -445 -170t-171 -459t174 -462t438 -173q184 0 332.5 91t224.5 251l115 -31q-86 -199 -263 -310.5t-405 -111.5q-315 0 -525 206t-210 540 z" />
<glyph unicode="D" horiz-adv-x="1480" d="M170 0v1434h463q340 0 552 -197t212 -526q0 -328 -208 -519.5t-540 -191.5h-479zM287 111h358q276 0 454.5 156.5t178.5 443.5q0 289 -181.5 450.5t-467.5 161.5h-342v-1212z" />
<glyph unicode="E" horiz-adv-x="1220" d="M170 0v1434h942v-111h-825v-512h651v-113h-651v-587h827v-111h-944z" />
<glyph unicode="F" horiz-adv-x="1187" d="M170 0v1434h938v-111h-821v-537h655v-110h-655v-676h-117z" />
<glyph unicode="G" horiz-adv-x="1624" d="M84 719q0 336 210 539.5t529 203.5q236 0 406 -109.5t241 -275.5l-114 -33q-16 33 -39 67t-69 79t-101 79t-140 57.5t-184 23.5q-274 0 -447 -171t-173 -458q0 -289 176 -462t444 -173q199 0 351.5 91t207.5 198v241h-446v111h557v-727h-109v136t1 75.5t1 26.5h-2 q-45 -57 -106 -108.5t-188 -103t-273 -51.5q-311 0 -522 206t-211 538z" />
<glyph unicode="H" horiz-adv-x="1429" d="M170 0v1434h117v-623h856v623h119v-1434h-119v698h-856v-698h-117z" />
<glyph unicode="I" horiz-adv-x="456" d="M170 0v1434h117v-1434h-117z" />
<glyph unicode="J" horiz-adv-x="983" d="M0 143l66 97q113 -154 290 -154q348 0 349 469v879h120v-879q0 -279 -120.5 -429.5t-350.5 -150.5q-217 0 -354 168z" />
<glyph unicode="K" horiz-adv-x="1296" d="M170 0v1434h117v-461v-82v-73v-60.5t-1 -50t-1 -37v-23.5v-8h4l254 266l510 529h145l-549 -572l611 -864l-140 2l-559 778l-274 -282v-496h-117z" />
<glyph unicode="L" horiz-adv-x="1150" d="M170 0v1434h117v-1323h786v-111h-903z" />
<glyph unicode="M" horiz-adv-x="1634" d="M170 0v1434h123l524 -936h4l522 936h123v-1434h-118v727v88t1 97.5t2 97.5t1 91t1 74.5t1 53.5v18h-4l-19 -35q-16 -37 -66.5 -129t-113.5 -206l-295 -525h-76l-293 518q-43 74 -78.5 139.5t-57 107.5t-37 73t-23.5 43l-6 14h-4v-18q0 -20 1 -53t1 -75t1 -91t2 -97.5 t1 -97.5v-88v-727h-117z" />
<glyph unicode="N" horiz-adv-x="1476" d="M170 0v1434h119l903 -1241h2v10q0 10 -1 27.5t-1 41v53t-1 61.5t-1 69v71v908h117v-1434h-119l-903 1251h-4v-10q0 -10 1 -27.5t1 -41t1 -54.5t2 -62.5t1 -69.5v-75v-911h-117z" />
<glyph unicode="O" horiz-adv-x="1646" d="M84 719q0 330 212 536.5t527.5 206.5t527.5 -206.5t212 -536.5t-212 -537t-527.5 -207t-527.5 207t-212 537zM203 719q0 -289 177 -461t443.5 -172t443.5 172t177 461q0 287 -177 459t-443.5 172t-443.5 -172t-177 -459z" />
<glyph unicode="P" horiz-adv-x="1159" d="M170 0v1434h405q250 0 387.5 -110t137.5 -323q0 -209 -138.5 -321.5t-386.5 -112.5h-288v-567h-117zM287 676h291q406 0 406 323q0 324 -406 324h-291v-647z" />
<glyph unicode="Q" horiz-adv-x="1646" d="M84 719q0 330 212 536.5t527.5 206.5t527.5 -206.5t212 -536.5q0 -313 -193.5 -517t-486.5 -225v-251h-121v251q-293 20 -485.5 224.5t-192.5 517.5zM203 719q0 -289 177 -461t443.5 -172t443.5 172t177 461q0 287 -177 459t-443.5 172t-443.5 -172t-177 -459z" />
<glyph unicode="R" horiz-adv-x="1208" d="M170 0v1434h410q246 0 385 -115t139 -322q0 -326 -344 -389l362 -608h-143l-342 588h-148h-202v-588h-117zM287 686h305q393 0 393 307q0 166 -106.5 248t-298.5 82h-293v-637z" />
<glyph unicode="S" horiz-adv-x="1193" d="M76 383l112 31q8 -168 129 -250t312 -82q176 0 273 72.5t97 216.5q0 55 -13 98t-43 72.5t-56.5 51t-77.5 38t-79 24t-87 19.5t-78 16q-96 20 -156.5 41t-136 64t-114.5 115.5t-39 172.5q0 178 123 278.5t344 100.5q201 0 335 -87t177 -265l-115 -31q-66 276 -397 277 q-170 0 -259 -71t-89 -195q0 -61 23.5 -107.5t56 -76t91 -53.5t105.5 -36t121 -26q84 -16 135 -28.5t126 -44.5t117 -73t73.5 -110.5t31.5 -161.5q0 -197 -128 -297.5t-365 -100.5q-98 0 -182.5 18.5t-166 61.5t-135 127t-65.5 201z" />
<glyph unicode="T" horiz-adv-x="1292" d="M78 1323v111h1134v-111h-507v-1323h-119v1323h-508z" />
<glyph unicode="U" horiz-adv-x="1417" d="M150 588v846h120v-850q0 -250 107.5 -374t331.5 -124q225 0 332.5 124t107.5 374v850h119v-846q0 -301 -141.5 -457t-417.5 -156q-279 0 -419 156t-140 457z" />
<glyph unicode="V" horiz-adv-x="1378" d="M37 1434h129l315 -772q35 -86 69 -171t57.5 -145.5t42 -109t28.5 -72.5l10 -27h4l25 64q25 63 76 191t104 259l317 783h127l-585 -1434h-133z" />
<glyph unicode="W" horiz-adv-x="1941" d="M39 1434h127l229 -701q35 -104 81 -246.5t74 -228.5t28 -88h4q0 2 25.5 86t63.5 208t62 200l176 561h131l177 -561q25 -76 61.5 -200t62 -208t25.5 -86h4q0 2 27.5 88t71.5 224.5t77 238.5l238 713h119l-476 -1434h-118l-213 662q-29 94 -59.5 197.5t-47.5 160.5l-16 57 h-4l-17 -57q-16 -57 -48 -163.5t-62 -207.5l-207 -649h-123z" />
<glyph unicode="X" horiz-adv-x="1347" d="M41 0l561 750l-512 684h143l279 -375q168 -227 172 -228h2l162 230l270 373h142l-508 -689l555 -745h-146l-291 391q-55 76 -108 148.5t-70 95.5l-18 22h-2q-4 0 -205 -270l-283 -387h-143z" />
<glyph unicode="Y" horiz-adv-x="1314" d="M37 1434h137l348 -494l137 -192h3l14 22q16 23 49 70t68 96l354 498h131l-563 -795v-639h-117v639z" />
<glyph unicode="Z" horiz-adv-x="1331" d="M88 0v109l848 1026q47 57 89 104t58 64l17 18l-4 4h-6q-8 0 -21.5 -1t-33 -1h-48.5h-59h-819v111h1134v-111l-837 -1016q-55 -68 -97.5 -118t-54.5 -64l-14 -14l2 -5h8q8 0 23.5 1.5t35 2.5t47 1h54.5h833v-111h-1155z" />
<glyph unicode="[" horiz-adv-x="706" d="M193 -428v2060h430v-108h-310v-1843h310v-109h-430z" />
<glyph unicode="\" horiz-adv-x="960" d="M53 1434h125l729 -1434h-127z" />
<glyph unicode="]" horiz-adv-x="706" d="M82 -317h311v1843h-311v108h430v-2060h-430v109z" />
<glyph unicode="^" d="M133 807l494 641h114l494 -641l-90 -59l-461 600l-463 -600z" />
<glyph unicode="_" horiz-adv-x="1486" d="M170 0h1149v-92h-1149v92z" />
<glyph unicode="`" horiz-adv-x="1062" d="M377 1827l100 35l209 -318h-115z" />
<glyph unicode="a" horiz-adv-x="1204" d="M53 0l486 1147h129l483 -1147h-119l-139 336h-584l-137 -336h-119zM352 436h498l-119 289q-39 92 -70.5 172t-44.5 113l-12 32h-4q0 -10 -135 -331z" />
<glyph unicode="b" horiz-adv-x="1101" d="M170 0v1147h432q150 0 244 -82t94 -199q0 -205 -195 -254v-6q104 -12 189.5 -84.5t85.5 -204.5q0 -141 -103.5 -229t-281.5 -88h-465zM283 100h350q119 0 194.5 58.5t75.5 160.5q0 106 -81 169t-199 63h-340v-451zM283 645h297q98 0 171.5 53.5t73.5 153.5 q0 84 -66.5 139.5t-176.5 55.5h-299v-402z" />
<glyph unicode="c" horiz-adv-x="1331" d="M84 573q0 256 172 426t428 170q176 0 321.5 -85t215.5 -253l-109 -28q-74 127 -164 186q-111 74 -258 74q-215 0 -353 -136t-138 -353.5t138 -354.5t349 -137q150 0 262.5 70.5t173.5 187.5l109 -31q-74 -154 -218.5 -244t-326.5 -90q-258 0 -430 170t-172 428z" />
<glyph unicode="d" horiz-adv-x="1259" d="M170 0v1147h375q283 0 457 -155.5t174 -422.5q0 -262 -172.5 -415.5t-446.5 -153.5h-387zM283 106h272q225 0 365.5 121t140.5 342.5t-141.5 346t-376.5 124.5h-260v-934z" />
<glyph unicode="e" horiz-adv-x="1064" d="M170 0v1147h776v-107h-663v-391h522v-104h-522v-439h673v-106h-786z" />
<glyph unicode="f" horiz-adv-x="1015" d="M170 0v1147h766v-107h-653v-422h489v-106h-489v-512h-113z" />
<glyph unicode="g" horiz-adv-x="1380" d="M84 571q0 258 172 428t426 170q170 0 318.5 -82.5t222.5 -255.5l-107 -28q-49 106 -158.5 184t-271.5 78q-211 0 -349 -137t-138 -357q0 -217 139 -353t360 -136q154 0 276 68.5t169 150.5v170h-363v102h467v-573h-104v75v53t1 32.5t1 19.5v8h-2q-174 -213 -455 -213 q-262 0 -433 169t-171 427z" />
<glyph unicode="h" horiz-adv-x="1259" d="M170 0v1147h113v-498h694v498h113v-1147h-113v543h-694v-543h-113z" />
<glyph unicode="i" horiz-adv-x="452" d="M170 0v1147h113v-1147h-113z" />
<glyph unicode="j" horiz-adv-x="847" d="M0 104l63 84q88 -106 234 -106q279 0 278 362v703h115v-703q0 -225 -101.5 -347t-291.5 -122q-188 0 -297 129z" />
<glyph unicode="k" horiz-adv-x="1132" d="M170 0v1147h113v-348v-69v-60.5v-51t-1 -42t-1 -29.5v-19v-8h4l170 172l450 455h146l-455 -457l500 -690h-135l-449 614l-229 -231v-383h-113z" />
<glyph unicode="l" horiz-adv-x="985" d="M170 0v1147h113v-1041h624v-106h-737z" />
<glyph unicode="m" horiz-adv-x="1421" d="M170 0v1147h139l266 -475q39 -72 74 -137.5t49 -92.5l15 -26h4q2 0 15 25.5t50 94t76 138.5l262 473h133v-1147h-114v610l2 371h-4l-387 -700h-82l-387 706h-5v-16q0 -14 1.5 -39t1.5 -55.5v-66.5t1 -70.5t1 -67.5v-58v-614h-111z" />
<glyph unicode="n" horiz-adv-x="1273" d="M170 0v1147h117l704 -963h4v9q0 6 -1 19t-1 30.5v40t-1 46t-1 52.5v55v711h115v-1147h-115l-708 975h-4v-8q0 -8 1 -21.5t1 -32v-42t1 -48t1 -54.5v-58v-711h-113z" />
<glyph unicode="o" horiz-adv-x="1363" d="M84 571q0 258 172 428t424 170q254 0 426 -170t172 -428q0 -256 -172 -426t-426 -170q-252 0 -424 170t-172 426zM199 571q0 -215 138 -352t343 -137t344 137t139 352q0 217 -138 354.5t-345 137.5q-205 0 -343 -137.5t-138 -354.5z" />
<glyph unicode="p" horiz-adv-x="1009" d="M170 0v1147h344q211 0 323.5 -92t112.5 -252t-112.5 -251t-323.5 -91h-231v-461h-113zM283 559h235q156 0 237 64.5t81 177.5q0 115 -81 178t-237 63h-235v-483z" />
<glyph unicode="q" horiz-adv-x="1361" d="M84 571q0 258 172 428t424 170q254 0 426 -170t172 -428q0 -242 -153.5 -407.5t-387.5 -186.5v-215h-114v215q-233 23 -386 189t-153 405zM199 571q0 -215 138 -352t343 -137t344 137t139 352q0 217 -138 354.5t-345 137.5q-205 0 -343 -137.5t-138 -354.5z" />
<glyph unicode="r" horiz-adv-x="1071" d="M170 0v1147h348q207 0 321.5 -86t114.5 -246q0 -129 -74.5 -210t-201.5 -105l305 -500h-125l-293 481q-51 -4 -133 -4h-149v-477h-113zM283 573h237q319 0 320 236q0 233 -320 233h-237v-469z" />
<glyph unicode="s" horiz-adv-x="1001" d="M76 285l104 26q14 -115 104.5 -177t235.5 -62q135 0 213 56t78 169q0 33 -6 59.5t-21.5 49t-28 38t-43 30.5t-46 23.5t-56.5 18.5t-56 14.5t-63.5 14.5t-62.5 12q-51 10 -87 20.5t-85 34t-80 53t-52.5 80t-21.5 115.5q0 147 103.5 228t290.5 81q356 0 419 -276l-102 -29 q-53 209 -309 209q-137 0 -211 -54t-74 -155q0 -106 78 -150t242 -77q63 -12 98 -20.5t98.5 -33t98 -57t63.5 -92t29 -135.5q0 -160 -108.5 -242t-297.5 -82q-74 0 -138.5 13.5t-131 45.5t-113.5 95.5t-61 155.5z" />
<glyph unicode="t" horiz-adv-x="1091" d="M78 1040v107h936v-107h-412v-1040h-113v1040h-411z" />
<glyph unicode="u" horiz-adv-x="1239" d="M150 475v672h116v-684q0 -381 354.5 -381t354.5 381v684h112v-672q0 -500 -471 -500q-467 0 -466 500z" />
<glyph unicode="v" horiz-adv-x="1212" d="M37 1147h125l262 -590q55 -129 100 -234.5t64 -148.5l18 -43h4l6 16q6 16 20.5 50t34 80.5t51.5 120t69 155.5l264 594h119l-506 -1147h-125z" />
<glyph unicode="w" horiz-adv-x="1619" d="M39 1147h121l186 -559q39 -119 76 -230.5t53 -160.5l14 -47h3l14 47q14 47 45 144t63 194l144 450h112l144 -450q31 -96 61.5 -193.5t44.5 -144.5l15 -47h2l14 47q16 49 53 160.5t76 230.5l188 559h113l-387 -1147h-113l-149 461q-33 98 -63.5 195.5t-45.5 138.5l-12 43 h-2l-14 -43q-12 -43 -43 -139.5t-64 -194.5l-149 -461h-113z" />
<glyph unicode="x" horiz-adv-x="1146" d="M41 0l457 596l-418 551h135l182 -238q47 -63 96.5 -127.5t67.5 -85.5l17 -22h2q2 0 184 241l172 232h127l-420 -553l463 -594h-137l-228 291q-51 66 -96 124t-61 79l-17 20h-2q-2 0 -176 -227l-217 -287h-131z" />
<glyph unicode="y" horiz-adv-x="1079" d="M37 1147h133l201 -293q43 -61 86 -124.5t63 -94.5l23 -31h2l174 250l201 293h122l-446 -651v-496h-115v496z" />
<glyph unicode="z" horiz-adv-x="1132" d="M88 0v106l610 705l119 136.5t66 74.5l14 16l-2 2h-139h-650v107h936v-107l-587 -688q-82 -94 -136.5 -155.5t-68.5 -73.5l-12 -14l2 -5q53 2 143 2h659v-106h-954z" />
<glyph unicode="{" horiz-adv-x="786" d="M170 549v104q53 10 80 41q61 68 61 230v268q0 438 389 438v-104q-129 0 -203.5 -72t-74.5 -258v-270q0 -90 -18.5 -157t-47 -100.5t-47 -48t-35.5 -20.5q14 -4 34 -19.5t48.5 -49t47 -101.5t18.5 -156v-268q0 -186 74.5 -259t203.5 -73v-104q-389 0 -389 440v269 q0 72 -12 125t-29.5 79.5t-39 42t-34 18.5t-24.5 5h-2z" />
<glyph unicode="|" horiz-adv-x="348" d="M123 -152v1739h102v-1739h-102z" />
<glyph unicode="}" horiz-adv-x="786" d="M86 -324q131 0 206 72t75 258v270q0 90 18 157t48 100.5t46.5 46t34.5 20.5q-14 4 -33.5 19.5t-48.5 50.5t-47 102.5t-18 155.5v268q0 186 -75 258t-206 72v106q391 0 391 -440v-268q-2 -256 139 -271h2v-104q-68 -12 -100 -68q-41 -70 -41 -202v-269q0 -440 -391 -440 v106z" />
<glyph unicode="~" d="M256 596q88 102 227 102q74 0 200 -45t204 -45q111 0 205 90l18 -100q-25 -33 -83 -63.5t-140 -30.5q-74 0 -201 45t-205 45q-109 0 -200 -96z" />
<glyph unicode="&#xa1;" horiz-adv-x="487" d="M152 1366q0 39 24.5 63.5t67.5 24.5q45 0 69.5 -25.5t24.5 -62.5t-25.5 -61.5t-68.5 -24.5t-67.5 24.5t-24.5 61.5zM186 0v1124h119v-1124h-119z" />
<glyph unicode="&#xa2;" horiz-adv-x="1200" d="M84 575q0 223 131 366.5t346 160.5v213h103v-213q147 -12 265 -91t173 -231l-107 -30q-43 115 -140 183t-234 68q-193 0 -308.5 -116.5t-115.5 -309t115.5 -310.5t299.5 -118q127 0 224.5 60.5t148.5 169.5l107 -31q-57 -129 -172 -209t-256 -94v-219h-101v219 q-211 16 -345 161.5t-134 370.5z" />
<glyph unicode="&#xa3;" horiz-adv-x="1032" d="M74 0v106q84 16 112.5 69.5t28.5 150t-12 196.5h-129v99h119q-16 156 -17 210q0 168 96.5 253t262.5 85q340 0 383 -315l-107 -29q-18 119 -82.5 180.5t-191.5 61.5q-248 0 -248 -252q0 -76 16 -194h426v-99h-416q12 -139 13 -194q0 -182 -97 -222l2 -2h25t59.5 1t82.5 1 h103.5h110.5h330v-106h-870z" />
<glyph unicode="&#xa4;" horiz-adv-x="1312" d="M88 86l154 156q-117 143 -117 329q0 203 133 353l-147 145l65 66l152 -148q145 119 327 119q188 0 332 -117l150 146l63 -66l-145 -145q135 -147 135 -353q0 -184 -119 -329l154 -156l-66 -66l-151 154q-156 -135 -353 -135q-199 0 -350 135l-153 -154zM233 571.5 q0 -178.5 123 -301.5t299 -123q180 0 303 123t123 301.5t-123 302t-303 123.5q-176 0 -299 -123.5t-123 -302z" />
<glyph unicode="&#xa5;" horiz-adv-x="993" d="M41 1147h129l219 -369q16 -27 43 -69.5t45.5 -72.5t18.5 -32h4q0 2 19.5 32t46 73t42.5 69l219 369h125l-260 -426h189v-92h-246l-70 -113h316v-94h-328v-422h-115v422h-325v94h315l-70 113h-245v92h188z" />
<glyph unicode="&#xa6;" horiz-adv-x="348" d="M123 -152v584h102v-584h-102zM123 1004v583h102v-583h-102z" />
<glyph unicode="&#xa7;" d="M184 262l111 31q20 -225 405 -225q350 0 351 208q0 45 -19.5 76t-48.5 51.5t-90.5 37t-116.5 26.5t-160 27q-10 2 -14 2q-66 10 -109.5 20t-105 31.5t-98.5 47.5t-64.5 71t-27.5 100q0 170 215 227q-195 66 -195 221q0 90 66.5 148.5t156.5 79t205 20.5q426 0 485 -288 l-100 -29q-55 227 -389 227q-305 0 -305 -155q0 -33 11 -58.5t41 -45t56.5 -32t83 -25t93 -18.5t114.5 -18q94 -14 148.5 -26.5t118 -33t96 -47t55.5 -68.5t23 -100q0 -178 -201 -231q195 -66 194 -242q0 -297 -462 -297q-90 0 -169 12.5t-159 41t-132 88t-63 145.5z M309 776q0 -41 22.5 -71.5t53.5 -50t91.5 -36t107.5 -25.5t131 -22q16 -4 59 -11t66 -11q102 16 162.5 62t60.5 118q0 37 -12.5 66.5t-47 51t-56 34t-83 25t-81 16.5t-95.5 14q-27 4 -41 6q-18 2 -50 7t-42 7q-246 -35 -246 -180z" />
<glyph unicode="&#xa8;" horiz-adv-x="1062" d="M264 1677.5q0 32.5 23.5 55t56.5 22.5t55.5 -22.5t22.5 -55.5q0 -35 -22.5 -57.5t-57.5 -22.5q-33 0 -55.5 24t-22.5 56.5zM637 1677q0 33 23.5 55.5t56.5 22.5t55.5 -22.5t22.5 -55t-22.5 -56.5t-55.5 -24t-56.5 22.5t-23.5 57.5z" />
<glyph unicode="&#xa9;" horiz-adv-x="1658" d="M84 543q0 324 215 534.5t528.5 210.5t529.5 -211t216 -534q0 -322 -216 -534t-529.5 -212t-528.5 212t-215 534zM164 545q0 -299 188.5 -484.5t475 -185.5t476 185.5t189.5 484.5q0 297 -189.5 481t-476 184t-475 -183t-188.5 -482zM420 543q0 174 113.5 283.5 t285.5 109.5q125 0 222.5 -60.5t132.5 -173.5l-84 -22q-12 53 -79 111.5t-188 58.5q-137 0 -224 -84t-87 -221t85 -221t220 -84q193 -1 277 155l84 -26q-47 -98 -143.5 -156.5t-219.5 -58.5q-174 0 -284.5 109.5t-110.5 279.5z" />
<glyph unicode="&#xaa;" horiz-adv-x="802" d="M72 254v86h659v-86h-659zM72 481l286 666h88l285 -666h-88l-74 174h-336l-75 -174h-86zM262 727h277l-60 139q-18 45 -38.5 94.5t-30.5 71.5l-9 23h-2l-10 -23q-8 -25 -27.5 -73t-39.5 -93z" />
<glyph unicode="&#xab;" horiz-adv-x="1273" d="M123 569l481 480l72 -70l-416 -408v-4l416 -407l-72 -70zM598 569l481 480l72 -70l-416 -408v-4l416 -407l-72 -70z" />
<glyph unicode="&#xad;" horiz-adv-x="1196" d="M215 545v102h764v-102h-764z" />
<glyph unicode="&#xae;" horiz-adv-x="1658" d="M84 543q0 324 215 534.5t528.5 210.5t529.5 -211t216 -534q0 -322 -216 -534t-529.5 -212t-528.5 212t-215 534zM164 545q0 -299 188.5 -484.5t475 -185.5t476 185.5t189.5 484.5q0 297 -189.5 481t-476 184t-475 -183t-188.5 -482zM586 168v756h237q137 0 214 -58.5 t77 -165.5q0 -84 -48 -135t-130 -67l194 -330h-100l-184 315q-33 -4 -80 -4h-88v-311h-92zM678 557h147q195 0 195 141.5t-195 141.5h-147v-283z" />
<glyph unicode="&#xaf;" horiz-adv-x="1062" d="M244 1597v103h575v-103h-575z" />
<glyph unicode="&#xb0;" horiz-adv-x="509" d="M37 1437.5q0 94.5 61.5 155t155.5 60.5q96 0 157.5 -60.5t61.5 -154.5q0 -96 -61.5 -156.5t-157.5 -60.5q-94 0 -155.5 61t-61.5 155.5zM119 1437.5q0 -59.5 38 -98.5t97 -39q61 0 99 39t38 98.5t-38 97.5t-99 38q-59 0 -97 -38t-38 -97.5z" />
<glyph unicode="&#xb1;" d="M301 0v102h764v-102h-764zM301 618v103h326v344h112v-344h326v-103h-326v-342h-110l-2 342h-326z" />
<glyph unicode="&#xb2;" horiz-adv-x="696" d="M66 963v98l354 274q119 90 119 203q0 72 -48.5 116t-138.5 44q-86 0 -132 -35t-66 -117l-78 23q47 213 280 213q127 0 199 -65.5t72 -176.5q0 -139 -152 -260q-51 -41 -123.5 -96.5t-126.5 -93.5l-51 -41l2 -9q49 6 166 7h293v-84h-569z" />
<glyph unicode="&#xb3;" horiz-adv-x="696" d="M59 1198l86 21q4 -86 61.5 -137.5t155.5 -51.5q90 0 139.5 46t49.5 112q0 70 -54.5 112.5t-142.5 42.5h-71v70h69q88 0 139.5 42t51.5 108q0 57 -45 98t-148 41q-92 0 -134 -38t-58 -118l-76 23q35 213 276 213q135 0 204 -59.5t69 -149.5q0 -80 -50 -133.5t-122 -57.5 v-6q78 -10 129 -62t51 -136q0 -102 -78 -167t-194 -65q-127 0 -212 69.5t-96 182.5z" />
<glyph unicode="&#xb4;" horiz-adv-x="1062" d="M377 1544l207 318l102 -35l-194 -283h-115z" />
<glyph unicode="&#xb6;" horiz-adv-x="1122" d="M84 788q0 164 109.5 261.5t326.5 97.5h434v-1434h-118v1323h-197v-1323h-119v713q-217 0 -326.5 98.5t-109.5 263.5z" />
<glyph unicode="&#xb7;" horiz-adv-x="423" d="M119 578q0 37 25.5 61.5t68.5 24.5t67.5 -25t24.5 -61.5t-25.5 -62.5t-66.5 -26q-45 0 -69.5 25t-24.5 64z" />
<glyph unicode="&#xb8;" horiz-adv-x="1062" d="M358 -227q55 -35 152 -35q150 0 149 86q0 51 -54 72.5t-169 25.5v105h94v-50q224 -18 224 -165q0 -78 -60.5 -120t-171.5 -42q-106 0 -164 35v88z" />
<glyph unicode="&#xb9;" horiz-adv-x="696" d="M109 1554l219 211h86v-718h196v-84h-483v84h197v428q0 162 6 180h-4l-60 -60l-100 -98z" />
<glyph unicode="&#xba;" horiz-adv-x="856" d="M72 813q0 154 103.5 255t250.5 101q150 0 254 -101t104 -255q0 -152 -104.5 -254t-253.5 -102q-147 0 -250.5 102t-103.5 254zM94 252v86h672v-86h-672zM158 813q0 -119 75.5 -195.5t192.5 -76.5q119 0 194.5 76.5t75.5 195.5t-75.5 195.5t-194.5 76.5 q-117 0 -192.5 -76.5t-75.5 -195.5z" />
<glyph unicode="&#xbb;" horiz-adv-x="1273" d="M123 160l416 407v4l-416 408l72 70l481 -480l-481 -479zM598 160l416 407v4l-416 408l72 70l481 -480l-481 -479z" />
<glyph unicode="&#xbc;" horiz-adv-x="1656" d="M109 1223l219 211h86v-719h196v-84h-483v84h197v428q0 162 6 180h-4l-60 -59l-100 -99zM565 0l428 1434h99l-430 -1434h-97zM997 213v88l369 502h113v-506h145v-84h-145v-213h-88v213h-394zM1092 301l2 -6h8h17t25.5 1t33 1h36.5h177v199q0 35 1 67.5t2 57t2 44t1 31.5 l2 11h-6q-2 0 -151.5 -202t-149.5 -204z" />
<glyph unicode="&#xbd;" horiz-adv-x="1656" d="M109 1223l219 211h86v-719h196v-84h-483v84h197v428q0 162 6 180h-4l-60 -59l-100 -99zM565 0l428 1434h99l-430 -1434h-97zM1028 0v96l354 277q117 88 117 200q0 72 -48 116t-138 44q-86 0 -132 -34.5t-65 -114.5l-78 20q47 215 281 215q125 0 197.5 -66.5t72.5 -174.5 q0 -137 -153 -261q-51 -41 -125 -98t-123 -94t-53 -41l2 -6q49 6 166 6h292v-84h-567z" />
<glyph unicode="&#xbe;" horiz-adv-x="1656" d="M59 866l86 21q4 -86 61.5 -137.5t155.5 -51.5q90 0 139.5 46.5t49.5 111.5q0 70 -54.5 113t-142.5 43h-71v69h69q88 0 139.5 42t51.5 108q0 57 -45 98t-148 41q-92 0 -134 -38t-58 -118l-76 23q35 213 276 213q135 0 204 -59.5t69 -149.5q0 -80 -50 -133t-122 -57v-7 q78 -10 129 -62t51 -136q0 -102 -78 -167t-194 -65q-127 0 -212 70t-96 182zM565 0l428 1434h99l-430 -1434h-97zM997 213v88l369 502h113v-506h145v-84h-145v-213h-88v213h-394zM1092 301l2 -6h8h17t25.5 1t33 1h36.5h177v199q0 35 1 67.5t2 57t2 44t1 31.5l2 11h-6 q-2 0 -151.5 -202t-149.5 -204z" />
<glyph unicode="&#xbf;" horiz-adv-x="1146" d="M84 360q0 90 38 166t107.5 130.5t141 91t168.5 71.5v305h120v-366q-252 -90 -352 -177t-100 -206t82 -204t268 -85q319 0 393 291l111 -29q-43 -184 -175 -280.5t-335 -96.5q-233 0 -350 115t-117 274zM510 1366q0 39 24.5 63.5t67.5 24.5t67.5 -25.5t24.5 -62.5 q0 -39 -24.5 -62.5t-67.5 -23.5q-45 0 -68.5 24.5t-23.5 61.5z" />
<glyph unicode="&#xc0;" horiz-adv-x="1482" d="M53 0l627 1434h125l625 -1434h-127l-183 420h-760l-182 -420h-125zM408 528h667l-174 400q-25 55 -64.5 150.5t-66.5 158.5l-27 61h-4l-26 -61q-27 -61 -68 -157.5t-63 -149.5zM510 1827l102 35l209 -318h-114z" />
<glyph unicode="&#xc1;" horiz-adv-x="1482" d="M53 0l627 1434h125l625 -1434h-127l-183 420h-760l-182 -420h-125zM408 528h667l-174 400q-25 55 -64.5 150.5t-66.5 158.5l-27 61h-4l-26 -61q-27 -61 -68 -157.5t-63 -149.5zM647 1544l209 318l100 -35l-194 -283h-115z" />
<glyph unicode="&#xc2;" horiz-adv-x="1482" d="M53 0l627 1434h125l625 -1434h-127l-183 420h-760l-182 -420h-125zM408 528h667l-174 400q-25 55 -64.5 150.5t-66.5 158.5l-27 61h-4l-26 -61q-27 -61 -68 -157.5t-63 -149.5zM465 1626l274 236l271 -238l-60 -68l-211 189l-215 -186z" />
<glyph unicode="&#xc3;" horiz-adv-x="1482" d="M53 0l627 1434h125l625 -1434h-127l-183 420h-760l-182 -420h-125zM408 528h667l-174 400q-25 55 -64.5 150.5t-66.5 158.5l-27 61h-4l-26 -61q-27 -61 -68 -157.5t-63 -149.5zM430 1702q57 72 158 72q55 0 141 -37t145 -37q78 0 132 53l30 -86q-57 -66 -157 -65 q-57 0 -143.5 35.5t-139.5 35.5q-88 0 -135 -57z" />
<glyph unicode="&#xc4;" horiz-adv-x="1482" d="M53 0l627 1434h125l625 -1434h-127l-183 420h-760l-182 -420h-125zM408 528h667l-174 400q-25 55 -64.5 150.5t-66.5 158.5l-27 61h-4l-26 -61q-27 -61 -68 -157.5t-63 -149.5zM477 1677.5q0 32.5 22.5 55t55.5 22.5t55.5 -22.5t22.5 -55.5q0 -35 -23.5 -57.5 t-56.5 -22.5q-31 0 -53.5 24t-22.5 56.5zM848 1677q0 33 23.5 55.5t56.5 22.5t56.5 -22.5t23.5 -55t-23.5 -56.5t-56.5 -24q-35 0 -57.5 22.5t-22.5 57.5z" />
<glyph unicode="&#xc5;" horiz-adv-x="1482" d="M53 0l627 1434h125l625 -1434h-127l-183 420h-760l-182 -420h-125zM408 528h667l-174 400q-25 55 -64.5 150.5t-66.5 158.5l-27 61h-4l-26 -61q-27 -61 -68 -157.5t-63 -149.5zM553 1694q0 78 52 127t136 49q82 0 134.5 -49t52.5 -127t-52.5 -127t-134.5 -49 q-84 0 -136 49t-52 127zM637 1694q0 -45 28.5 -73t75.5 -28q45 0 74 28t29 73t-29 72.5t-74 27.5q-47 0 -75.5 -27.5t-28.5 -72.5z" />
<glyph unicode="&#xc6;" horiz-adv-x="2004" d="M53 0l627 1434h1216v-107h-825v-520h655v-105h-655v-596h827v-106h-942v424h-594l-182 -424h-127zM408 526h548v801h-202z" />
<glyph unicode="&#xc7;" horiz-adv-x="1585" d="M84 721q0 336 208 538.5t527 202.5q236 0 406 -109.5t241 -275.5l-114 -33q-23 45 -57.5 89.5t-97 97.5t-161 86t-217.5 33q-274 0 -445 -170t-171 -459t174 -462t438 -173q184 0 332.5 91t224.5 251l115 -31q-82 -188 -247 -299.5t-378 -122.5q203 -25 203 -163 q0 -78 -60.5 -120t-170.5 -42q-106 0 -164 35v88q55 -35 151 -35q150 0 150 86q0 51 -54.5 72.5t-168.5 25.5v55q-291 23 -477.5 226t-186.5 518z" />
<glyph unicode="&#xc8;" horiz-adv-x="1220" d="M170 0v1434h942v-111h-825v-512h651v-113h-651v-587h827v-111h-944zM418 1827l102 35l209 -318h-115z" />
<glyph unicode="&#xc9;" horiz-adv-x="1220" d="M170 0v1434h942v-111h-825v-512h651v-113h-651v-587h827v-111h-944zM555 1544l209 318l100 -35l-194 -283h-115z" />
<glyph unicode="&#xca;" horiz-adv-x="1220" d="M170 0v1434h942v-111h-825v-512h651v-113h-651v-587h827v-111h-944zM373 1626l274 236l271 -238l-58 -68l-213 189l-215 -186z" />
<glyph unicode="&#xcb;" horiz-adv-x="1220" d="M170 0v1434h942v-111h-825v-512h651v-113h-651v-587h827v-111h-944zM385 1677.5q0 32.5 22.5 55t55.5 22.5t55.5 -22.5t22.5 -55.5q0 -35 -22.5 -57.5t-57.5 -22.5q-31 0 -53.5 24t-22.5 56.5zM756 1677q0 33 23.5 55.5t56 22.5t56 -22.5t23.5 -55t-23.5 -56.5t-56 -24 t-56 22.5t-23.5 57.5z" />
<glyph unicode="&#xcc;" horiz-adv-x="456" d="M-2 1827l102 35l209 -318h-114zM170 0v1434h117v-1434h-117z" />
<glyph unicode="&#xcd;" horiz-adv-x="456" d="M135 1544l209 318l100 -35l-194 -283h-115zM170 0v1434h117v-1434h-117z" />
<glyph unicode="&#xce;" horiz-adv-x="456" d="M6 1628l223 234l224 -234l-62 -67l-162 172l-161 -170zM170 0v1434h117v-1434h-117z" />
<glyph unicode="&#xcf;" horiz-adv-x="456" d="M39 1677.5q0 32.5 22.5 55t55.5 22.5t55.5 -22.5t22.5 -55t-22.5 -56.5t-55.5 -24t-55.5 24t-22.5 56.5zM170 0v1434h117v-1434h-117zM262 1677q0 33 23.5 55.5t56.5 22.5t55.5 -22.5t22.5 -55t-22.5 -56.5t-55.5 -24q-35 0 -57.5 22.5t-22.5 57.5z" />
<glyph unicode="&#xd0;" horiz-adv-x="1480" d="M25 700v109h145v625h463q340 0 552 -197t212 -526q0 -328 -208 -519.5t-540 -191.5h-479v700h-145zM287 111h358q276 0 454.5 156.5t178.5 443.5q0 289 -181.5 450.5t-467.5 161.5h-342v-514h381v-109h-381v-589z" />
<glyph unicode="&#xd1;" horiz-adv-x="1476" d="M170 0v1434h119l903 -1241h2v10q0 10 -1 27.5t-1 41v53t-1 61.5t-1 69v71v908h117v-1434h-119l-903 1251h-4v-10q0 -10 1 -27.5t1 -41t1 -54.5t2 -62.5t1 -69.5v-75v-911h-117zM442 1702q57 72 158 72q55 0 140 -37t145 -37q76 0 133 53l29 -86q-51 -66 -156 -65 q-57 0 -143 35.5t-140 35.5q-94 0 -135 -57z" />
<glyph unicode="&#xd2;" horiz-adv-x="1646" d="M84 719q0 330 212 536.5t527.5 206.5t527.5 -206.5t212 -536.5t-212 -537t-527.5 -207t-527.5 207t-212 537zM203 719q0 -289 177 -461t443.5 -172t443.5 172t177 461q0 287 -177 459t-443.5 172t-443.5 -172t-177 -459zM594 1827l102 35l209 -318h-114z" />
<glyph unicode="&#xd3;" horiz-adv-x="1646" d="M84 719q0 330 212 536.5t527.5 206.5t527.5 -206.5t212 -536.5t-212 -537t-527.5 -207t-527.5 207t-212 537zM203 719q0 -289 177 -461t443.5 -172t443.5 172t177 461q0 287 -177 459t-443.5 172t-443.5 -172t-177 -459zM731 1544l209 318l100 -35l-194 -283h-115z" />
<glyph unicode="&#xd4;" horiz-adv-x="1646" d="M84 719q0 330 212 536.5t527.5 206.5t527.5 -206.5t212 -536.5t-212 -537t-527.5 -207t-527.5 207t-212 537zM203 719q0 -289 177 -461t443.5 -172t443.5 172t177 461q0 287 -177 459t-443.5 172t-443.5 -172t-177 -459zM549 1626l274 236l271 -238l-58 -68l-213 189 l-215 -186z" />
<glyph unicode="&#xd5;" horiz-adv-x="1646" d="M84 719q0 330 212 536.5t527.5 206.5t527.5 -206.5t212 -536.5t-212 -537t-527.5 -207t-527.5 207t-212 537zM203 719q0 -289 177 -461t443.5 -172t443.5 172t177 461q0 287 -177 459t-443.5 172t-443.5 -172t-177 -459zM514 1702q57 72 158 72q53 0 139 -37t147 -37 q79 0 132 53l30 -86q-57 -66 -157 -65q-57 0 -143.5 35.5t-139.5 35.5q-88 0 -135 -57z" />
<glyph unicode="&#xd6;" horiz-adv-x="1646" d="M84 719q0 330 212 536.5t527.5 206.5t527.5 -206.5t212 -536.5t-212 -537t-527.5 -207t-527.5 207t-212 537zM203 719q0 -289 177 -461t443.5 -172t443.5 172t177 461q0 287 -177 459t-443.5 172t-443.5 -172t-177 -459zM561 1677.5q0 32.5 22.5 55t55.5 22.5t55.5 -22.5 t22.5 -55.5q0 -35 -22.5 -57.5t-57.5 -22.5q-31 0 -53.5 24t-22.5 56.5zM932 1677q0 33 23.5 55.5t56 22.5t56.5 -22.5t24 -55t-24 -56.5t-56.5 -24t-56 22.5t-23.5 57.5z" />
<glyph unicode="&#xd7;" d="M348 864l74 72l262 -262l262 260l74 -72l-262 -262l262 -264l-74 -72l-262 262l-262 -262l-72 72l262 264z" />
<glyph unicode="&#xd8;" horiz-adv-x="1646" d="M84 719q0 330 212 536.5t527 206.5q233 0 414 -116l147 190l89 -63l-148 -195q238 -209 238 -559q0 -330 -212 -537t-528 -207q-229 0 -405 111l-152 -197l-86 66l148 197q-244 213 -244 567zM203 719q0 -303 194 -477l772 1013q-152 94 -346 95q-266 0 -443 -172 t-177 -459zM485 176q152 -90 338 -90q266 0 443.5 172t177.5 461q0 293 -189 469z" />
<glyph unicode="&#xd9;" horiz-adv-x="1417" d="M150 588v846h120v-850q0 -250 107.5 -374t331.5 -124q225 0 332.5 124t107.5 374v850h119v-846q0 -301 -141.5 -457t-417.5 -156q-279 0 -419 156t-140 457zM479 1827l101 35l208 -318h-114z" />
<glyph unicode="&#xda;" horiz-adv-x="1417" d="M150 588v846h120v-850q0 -250 107.5 -374t331.5 -124q225 0 332.5 124t107.5 374v850h119v-846q0 -301 -141.5 -457t-417.5 -156q-279 0 -419 156t-140 457zM614 1544l209 318l101 -35l-195 -283h-115z" />
<glyph unicode="&#xdb;" horiz-adv-x="1417" d="M150 588v846h120v-850q0 -250 107.5 -374t331.5 -124q225 0 332.5 124t107.5 374v850h119v-846q0 -301 -141.5 -457t-417.5 -156q-279 0 -419 156t-140 457zM434 1626l273 236l272 -238l-59 -68l-213 189l-213 -186z" />
<glyph unicode="&#xdc;" horiz-adv-x="1417" d="M150 588v846h120v-850q0 -250 107.5 -374t331.5 -124q225 0 332.5 124t107.5 374v850h119v-846q0 -301 -141.5 -457t-417.5 -156q-279 0 -419 156t-140 457zM444 1677.5q0 32.5 22.5 55t55.5 22.5t55.5 -22.5t22.5 -55t-22.5 -56.5t-55.5 -24t-55.5 24t-22.5 56.5z M817 1677.5q0 32.5 22.5 55t55.5 22.5t56.5 -22.5t23.5 -55.5q0 -35 -22.5 -57.5t-57.5 -22.5q-33 0 -55.5 24t-22.5 56.5z" />
<glyph unicode="&#xdd;" horiz-adv-x="1314" d="M37 1434h137l348 -494l137 -192h3l14 22q16 23 49 70t68 96l354 498h131l-563 -795v-639h-117v639zM573 1544l209 318l101 -35l-195 -283h-115z" />
<glyph unicode="&#xde;" horiz-adv-x="1126" d="M170 0v1434h117v-304h268q246 0 380 -105t134 -302t-134 -300.5t-380 -103.5h-268v-319h-117zM287 426h272q391 0 391 297t-391 297h-272v-594z" />
<glyph unicode="&#xdf;" horiz-adv-x="1173" d="M170 0v1147h821l-266 -455l2 -4h12q160 0 264.5 -93t104.5 -255q0 -160 -103.5 -262.5t-273.5 -102.5q-174 0 -278 91l53 81q88 -76 217 -75q121 0 197.5 74.5t76.5 189.5q0 113 -73.5 183.5t-198.5 70.5h-121v102l203 344l-2 4h-111h-411v-1040h-113z" />
<glyph unicode="&#xe0;" horiz-adv-x="1204" d="M53 0l486 1147h129l483 -1147h-119l-139 336h-584l-137 -336h-119zM352 436h498l-119 289q-39 92 -70.5 172t-44.5 113l-12 32h-4q0 -10 -135 -331zM375 1540l100 35l209 -318h-115z" />
<glyph unicode="&#xe1;" horiz-adv-x="1204" d="M53 0l486 1147h129l483 -1147h-119l-139 336h-584l-137 -336h-119zM352 436h498l-119 289q-39 92 -70.5 172t-44.5 113l-12 32h-4q0 -10 -135 -331zM510 1257l209 318l100 -35l-194 -283h-115z" />
<glyph unicode="&#xe2;" horiz-adv-x="1204" d="M53 0l486 1147h129l483 -1147h-119l-139 336h-584l-137 -336h-119zM352 436h498l-119 289q-39 92 -70.5 172t-44.5 113l-12 32h-4q0 -10 -135 -331zM381 1341l223 234l223 -234l-61 -67l-162 172l-162 -170z" />
<glyph unicode="&#xe3;" horiz-adv-x="1204" d="M53 0l486 1147h129l483 -1147h-119l-139 336h-584l-137 -336h-119zM324 1417q51 70 139 70q51 0 129 -37t131 -37q66 0 113 53l28 -90q-45 -61 -135 -61q-53 0 -133 35.5t-127 35.5q-72 0 -117 -57zM352 436h498l-119 289q-39 92 -70.5 172t-44.5 113l-12 32h-4 q0 -10 -135 -331z" />
<glyph unicode="&#xe4;" horiz-adv-x="1204" d="M53 0l486 1147h129l483 -1147h-119l-139 336h-584l-137 -336h-119zM340 1390.5q0 32.5 22.5 55t55.5 22.5t55.5 -22.5t22.5 -55t-22.5 -56t-55.5 -23.5t-55.5 23.5t-22.5 56zM352 436h498l-119 289q-39 92 -70.5 172t-44.5 113l-12 32h-4q0 -10 -135 -331zM713 1390.5 q0 32.5 22.5 55t55 22.5t56 -22.5t23.5 -54.5q0 -35 -23.5 -57.5t-56 -22.5t-55 23.5t-22.5 56z" />
<glyph unicode="&#xe5;" horiz-adv-x="1204" d="M53 0l486 1147h129l483 -1147h-119l-139 336h-584l-137 -336h-119zM352 436h498l-119 289q-39 92 -70.5 172t-44.5 113l-12 32h-4q0 -10 -135 -331zM418 1407q0 78 52 127t134 49t134.5 -49t52.5 -127t-52.5 -127t-134.5 -49t-134 49t-52 127zM500 1407q0 -45 28.5 -72.5 t75.5 -27.5t76 27.5t29 72.5t-29 72.5t-76 27.5t-75.5 -27.5t-28.5 -72.5z" />
<glyph unicode="&#xe6;" horiz-adv-x="1656" d="M53 0l488 1147h997v-107h-664v-391h523v-104h-523v-439h674v-106h-784v332h-455l-137 -332h-119zM350 432h414v610h-162z" />
<glyph unicode="&#xe7;" horiz-adv-x="1331" d="M84 573q0 256 172 426t428 170q176 0 321.5 -85t215.5 -253l-109 -28q-74 127 -164 186q-111 74 -258 74q-215 0 -353 -136t-138 -353.5t138 -354.5t349 -137q150 0 262.5 70.5t173.5 187.5l109 -31q-70 -147 -206 -236t-308 -98v-2q223 -20 223 -166q0 -78 -59.5 -119.5 t-169.5 -41.5q-109 0 -166 35v88q51 -35 151 -35q150 0 150 86q0 51 -54.5 72.5t-168.5 25.5v62q-236 23 -387.5 187.5t-151.5 405.5z" />
<glyph unicode="&#xe8;" horiz-adv-x="1064" d="M170 0v1147h776v-107h-663v-391h522v-104h-522v-439h673v-106h-786zM332 1540l100 35l209 -318h-115z" />
<glyph unicode="&#xe9;" horiz-adv-x="1064" d="M170 0v1147h776v-107h-663v-391h522v-104h-522v-439h673v-106h-786zM467 1257l209 318l100 -35l-194 -283h-115z" />
<glyph unicode="&#xea;" horiz-adv-x="1064" d="M170 0v1147h776v-107h-663v-391h522v-104h-522v-439h673v-106h-786zM287 1339l272 236l272 -238l-59 -67l-213 188l-213 -186z" />
<glyph unicode="&#xeb;" horiz-adv-x="1064" d="M170 0v1147h776v-107h-663v-391h522v-104h-522v-439h673v-106h-786zM297 1390.5q0 32.5 22.5 55t55.5 22.5t56.5 -22.5t23.5 -55t-23.5 -56t-56.5 -23.5t-55.5 23.5t-22.5 56zM670 1390.5q0 32.5 22.5 55t55 22.5t56 -22.5t23.5 -54.5q0 -35 -22 -57.5t-57 -22.5 q-33 0 -55.5 23.5t-22.5 56z" />
<glyph unicode="&#xec;" horiz-adv-x="452" d="M-2 1540l100 35l209 -318h-114zM170 0v1147h113v-1147h-113z" />
<glyph unicode="&#xed;" horiz-adv-x="452" d="M133 1257l209 318l100 -35l-194 -283h-115zM170 0v1147h113v-1147h-113z" />
<glyph unicode="&#xee;" horiz-adv-x="452" d="M4 1341l223 234l224 -234l-62 -67l-162 172l-161 -170zM170 0v1147h113v-1147h-113z" />
<glyph unicode="&#xef;" horiz-adv-x="452" d="M37 1390.5q0 32.5 22.5 55t55 22.5t56.5 -22.5t24 -55t-24 -56t-56.5 -23.5t-55 23.5t-22.5 56zM170 0v1147h113v-1147h-113zM260 1391q0 33 23.5 55t56.5 22t56.5 -22.5t23.5 -55t-23.5 -56t-56.5 -23.5t-56.5 22.5t-23.5 57.5z" />
<glyph unicode="&#xf0;" horiz-adv-x="1259" d="M25 545v102h145v500h375q283 0 457 -155.5t174 -422.5q0 -262 -172.5 -415.5t-446.5 -153.5h-387v545h-145zM283 106h272q225 0 365.5 121t140.5 342.5t-141.5 346t-376.5 124.5h-260v-393h376v-102h-376v-439z" />
<glyph unicode="&#xf1;" horiz-adv-x="1273" d="M170 0v1147h117l704 -963h4v9q0 6 -1 19t-1 30.5v40t-1 46t-1 52.5v55v711h115v-1147h-115l-708 975h-4v-8q0 -8 1 -21.5t1 -32v-42t1 -48t1 -54.5v-58v-711h-113zM348 1417q51 70 139 70q51 0 129 -37t132 -37q65 0 112 53l29 -90q-45 -61 -135 -61q-53 0 -133 35.5 t-127 35.5q-72 0 -117 -57z" />
<glyph unicode="&#xf2;" horiz-adv-x="1363" d="M84 571q0 258 172 428t424 170q254 0 426 -170t172 -428q0 -256 -172 -426t-426 -170q-252 0 -424 170t-172 426zM199 571q0 -215 138 -352t343 -137t344 137t139 352q0 217 -138 354.5t-345 137.5q-205 0 -343 -137.5t-138 -354.5zM455 1540l100 35l209 -318h-115z" />
<glyph unicode="&#xf3;" horiz-adv-x="1363" d="M84 571q0 258 172 428t424 170q254 0 426 -170t172 -428q0 -256 -172 -426t-426 -170q-252 0 -424 170t-172 426zM199 571q0 -215 138 -352t343 -137t344 137t139 352q0 217 -138 354.5t-345 137.5q-205 0 -343 -137.5t-138 -354.5zM590 1257l209 318l100 -35l-194 -283 h-115z" />
<glyph unicode="&#xf4;" horiz-adv-x="1363" d="M84 571q0 258 172 428t424 170q254 0 426 -170t172 -428q0 -256 -172 -426t-426 -170q-252 0 -424 170t-172 426zM199 571q0 -215 138 -352t343 -137t344 137t139 352q0 217 -138 354.5t-345 137.5q-205 0 -343 -137.5t-138 -354.5zM408 1339l274 236l272 -238l-59 -67 l-213 188l-215 -186z" />
<glyph unicode="&#xf5;" horiz-adv-x="1363" d="M84 571q0 258 172 428t424 170q254 0 426 -170t172 -428q0 -256 -172 -426t-426 -170q-252 0 -424 170t-172 426zM199 571q0 -215 138 -352t343 -137t344 137t139 352q0 217 -138 354.5t-345 137.5q-205 0 -343 -137.5t-138 -354.5zM403 1417q45 70 138 70q53 0 131 -37 t131 -37q65 0 112 53l29 -90q-47 -61 -135 -61q-53 0 -133 35.5t-129 35.5q-70 0 -115 -57z" />
<glyph unicode="&#xf6;" horiz-adv-x="1363" d="M84 571q0 258 172 428t424 170q254 0 426 -170t172 -428q0 -256 -172 -426t-426 -170q-252 0 -424 170t-172 426zM199 571q0 -215 138 -352t343 -137t344 137t139 352q0 217 -138 354.5t-345 137.5q-205 0 -343 -137.5t-138 -354.5zM420 1390.5q0 32.5 22.5 55t55 22.5 t55 -22.5t22.5 -55t-22.5 -56t-55 -23.5t-55 23.5t-22.5 56zM791 1390.5q0 32.5 23.5 55t56 22.5t56 -22.5t23.5 -54.5q0 -35 -22.5 -57.5t-57.5 -22.5q-33 0 -56 23.5t-23 56z" />
<glyph unicode="&#xf7;" d="M301 545v102h764v-102h-764zM592 229q0 39 24.5 62.5t67.5 23.5q45 0 68.5 -24.5t23.5 -61.5q0 -39 -24.5 -63.5t-67.5 -24.5t-67.5 26t-24.5 62zM592 971q0 39 24.5 63.5t67.5 24.5t67.5 -25.5t24.5 -62.5q0 -39 -24.5 -63.5t-67.5 -24.5t-67.5 25.5t-24.5 62.5z" />
<glyph unicode="&#xf8;" horiz-adv-x="1363" d="M84 571q0 258 172 428t424 170q178 0 324 -90l124 160l82 -63l-123 -158q190 -174 191 -447q0 -256 -172 -426t-426 -170q-180 0 -330 95l-123 -158l-82 63l123 158q-184 172 -184 438zM199 571q0 -209 137 -350l602 772q-115 70 -258 70q-205 0 -343 -137.5t-138 -354.5 zM418 156q115 -74 262 -74q205 0 344 137t139 352q0 221 -143 359z" />
<glyph unicode="&#xf9;" horiz-adv-x="1239" d="M150 475v672h116v-684q0 -381 354.5 -381t354.5 381v684h112v-672q0 -500 -471 -500q-467 0 -466 500zM393 1540l103 35l206 -318h-112z" />
<glyph unicode="&#xfa;" horiz-adv-x="1239" d="M150 475v672h116v-684q0 -381 354.5 -381t354.5 381v684h112v-672q0 -500 -471 -500q-467 0 -466 500zM530 1257l207 318l103 -35l-197 -283h-113z" />
<glyph unicode="&#xfb;" horiz-adv-x="1239" d="M150 475v672h116v-684q0 -381 354.5 -381t354.5 381v684h112v-672q0 -500 -471 -500q-467 0 -466 500zM348 1339l275 236l270 -238l-59 -67l-211 188l-215 -186z" />
<glyph unicode="&#xfc;" horiz-adv-x="1239" d="M150 475v672h116v-684q0 -381 354.5 -381t354.5 381v684h112v-672q0 -500 -471 -500q-467 0 -466 500zM358 1390.5q0 32.5 24 55t56.5 22.5t55 -22.5t22.5 -54.5q0 -35 -22.5 -57.5t-57.5 -22.5q-33 0 -55.5 23.5t-22.5 56zM731 1391q0 33 23.5 55t56.5 22t55.5 -22.5 t22.5 -55t-22.5 -56t-55.5 -23.5t-56.5 22.5t-23.5 57.5z" />
<glyph unicode="&#xfd;" horiz-adv-x="1079" d="M37 1147h133l201 -293q43 -61 86 -124.5t63 -94.5l23 -31h2l174 250l201 293h122l-446 -651v-496h-115v496zM457 1257l207 318l102 -35l-197 -283h-112z" />
<glyph unicode="&#xfe;" horiz-adv-x="942" d="M170 0v1147h113v-258h170q432 0 432 -309q0 -301 -432 -301h-170v-279h-113zM283 375h174q162 0 236.5 47t74.5 157.5t-77 157.5t-234 47h-174v-409z" />
<glyph unicode="&#xff;" horiz-adv-x="1079" d="M37 1147h133l201 -293q43 -61 86 -124.5t63 -94.5l23 -31h2l174 250l201 293h122l-446 -651v-496h-115v496zM285 1390.5q0 32.5 23.5 55t56 22.5t55 -22.5t22.5 -54.5q0 -35 -22.5 -57.5t-57.5 -22.5q-33 0 -55 23.5t-22 56zM657 1391q0 33 24 55t56.5 22t55 -22.5 t22.5 -55t-22.5 -56t-55 -23.5t-56.5 22.5t-24 57.5z" />
<glyph unicode="&#x152;" horiz-adv-x="2025" d="M84 716.5q0 323.5 209 524.5t538 201q90 0 140 -8h938v-111h-824v-512h654v-111h-654v-589h826v-111h-938q-59 -8 -144 -8q-328 0 -536.5 200.5t-208.5 524zM203 719q0 -285 172 -452t456 -167q78 0 138 19v1198q-61 16 -138 16q-285 0 -456.5 -165.5t-171.5 -448.5z" />
<glyph unicode="&#x153;" horiz-adv-x="1708" d="M84 573.5q0 260.5 170 420t438 159.5q80 0 125 -6h766v-107h-665v-391h524v-104h-524v-439h675v-106h-782q-39 -6 -121 -6q-268 0 -437 159.5t-169 420zM199 575.5q0 -217.5 135 -347.5t360 -130q57 0 115 11v929q-57 10 -115 11q-225 0 -360 -128t-135 -345.5z" />
<glyph unicode="&#x178;" horiz-adv-x="1314" d="M37 1434h137l348 -494l137 -192h3l14 22q16 23 49 70t68 96l354 498h131l-563 -795v-639h-117v639zM403 1677.5q0 32.5 23 55t55.5 22.5t55 -22.5t22.5 -55t-22.5 -56.5t-55 -24t-55.5 24t-23 56.5zM776 1677.5q0 32.5 22.5 55t55.5 22.5t56.5 -22.5t23.5 -55.5 q0 -35 -22.5 -57.5t-57.5 -22.5q-33 0 -55.5 24t-22.5 56.5z" />
<glyph unicode="&#x2c6;" horiz-adv-x="1062" d="M258 1626l272 236l273 -238l-60 -68l-213 189l-213 -186z" />
<glyph unicode="&#x2dc;" horiz-adv-x="1062" d="M258 1704q51 70 139 70q51 0 129 -37t131 -37q66 0 113 53l29 -90q-45 -61 -135 -61q-53 0 -133 35.5t-130 35.5q-70 0 -114 -57z" />
<glyph unicode="&#x2000;" horiz-adv-x="935" />
<glyph unicode="&#x2001;" horiz-adv-x="1870" />
<glyph unicode="&#x2002;" horiz-adv-x="935" />
<glyph unicode="&#x2003;" horiz-adv-x="1870" />
<glyph unicode="&#x2004;" horiz-adv-x="623" />
<glyph unicode="&#x2005;" horiz-adv-x="467" />
<glyph unicode="&#x2006;" horiz-adv-x="311" />
<glyph unicode="&#x2007;" horiz-adv-x="311" />
<glyph unicode="&#x2008;" horiz-adv-x="233" />
<glyph unicode="&#x2009;" horiz-adv-x="374" />
<glyph unicode="&#x200a;" horiz-adv-x="103" />
<glyph unicode="&#x2010;" horiz-adv-x="1196" d="M215 545v102h764v-102h-764z" />
<glyph unicode="&#x2011;" horiz-adv-x="1196" d="M215 545v102h764v-102h-764z" />
<glyph unicode="&#x2012;" horiz-adv-x="1196" d="M215 545v102h764v-102h-764z" />
<glyph unicode="&#x2013;" d="M215 545v102h936v-102h-936z" />
<glyph unicode="&#x2014;" horiz-adv-x="2074" d="M215 545v102h1643v-102h-1643z" />
<glyph unicode="&#x2018;" horiz-adv-x="423" d="M104 1208q0 70 46.5 146t123.5 104l52 -61q-47 -16 -81 -61.5t-38 -84.5q39 6 62.5 -14t23.5 -59q0 -35 -23.5 -58.5t-66.5 -23.5q-45 0 -72 29.5t-27 82.5z" />
<glyph unicode="&#x2019;" horiz-adv-x="423" d="M100 1157q45 16 79 61.5t38 84.5q-37 -8 -61.5 13t-24.5 58t24.5 60.5t65.5 23.5q45 0 71.5 -29.5t26.5 -82.5q0 -70 -46 -146t-123 -104z" />
<glyph unicode="&#x201a;" horiz-adv-x="423" d="M100 -162q45 18 79 63.5t38 84.5q-39 -8 -62.5 12t-23.5 59q0 37 24.5 60.5t65.5 23.5q45 0 71.5 -29.5t26.5 -82.5q0 -72 -46 -148t-123 -104z" />
<glyph unicode="&#x201c;" horiz-adv-x="774" d="M100 1208q0 70 46.5 146t123.5 104l49 -61q-45 -16 -79.5 -61.5t-38.5 -84.5q39 6 63.5 -14t24.5 -59q0 -35 -24.5 -58.5t-65.5 -23.5q-45 0 -72 29.5t-27 82.5zM449 1208q0 70 46 146t123 104l52 -61q-47 -16 -81 -61.5t-38 -84.5q39 6 62.5 -14t23.5 -59 q0 -35 -23.5 -58.5t-66.5 -23.5q-45 0 -71.5 29.5t-26.5 82.5z" />
<glyph unicode="&#x201d;" horiz-adv-x="774" d="M100 1157q45 16 79 61.5t38 84.5q-37 -8 -61.5 13t-24.5 58t24.5 60.5t65.5 23.5q45 0 71.5 -29.5t26.5 -82.5q0 -70 -46 -146t-123 -104zM449 1157q47 16 80.5 61.5t37.5 84.5q-39 -8 -63.5 13t-24.5 58t24.5 60.5t65.5 23.5q47 0 74 -29.5t27 -82.5q0 -70 -46 -146 t-124 -104z" />
<glyph unicode="&#x201e;" horiz-adv-x="739" d="M100 -162q45 18 79 63.5t38 84.5q-39 -8 -62.5 12t-23.5 59q0 37 24.5 60.5t65.5 23.5q45 0 71.5 -29.5t26.5 -82.5q0 -72 -46 -148t-123 -104zM414 -162q45 16 79.5 62.5t38.5 85.5q-39 -8 -63.5 12t-24.5 59q0 37 25 60.5t66 23.5q45 0 71.5 -29.5t26.5 -82.5 q0 -72 -46 -148t-124 -104z" />
<glyph unicode="&#x2022;" horiz-adv-x="638" d="M170 583.5q0 63.5 43 105.5t106.5 42t106.5 -42t43 -105.5t-42 -105.5t-107.5 -42t-107.5 42t-42 105.5z" />
<glyph unicode="&#x2026;" horiz-adv-x="1376" d="M119 49q0 31 20.5 51.5t55 20.5t55 -20.5t20.5 -51.5q0 -33 -20.5 -52.5t-55 -19.5t-55 20.5t-20.5 51.5zM602 49q0 33 20.5 52.5t55.5 19.5t55.5 -20.5t20.5 -51.5q0 -33 -20.5 -52.5t-55.5 -19.5q-37 0 -56.5 20.5t-19.5 51.5zM1104 49q0 31 20.5 51.5t55.5 20.5 q37 0 57 -20.5t20 -51.5t-20 -51.5t-57 -20.5q-35 0 -55.5 20.5t-20.5 51.5z" />
<glyph unicode="&#x202f;" horiz-adv-x="374" />
<glyph unicode="&#x2039;" horiz-adv-x="798" d="M123 569l481 480l72 -70l-416 -408v-4l416 -407l-72 -70z" />
<glyph unicode="&#x203a;" horiz-adv-x="798" d="M123 160l416 407v4l-416 408l72 70l481 -480l-481 -479z" />
<glyph unicode="&#x205f;" horiz-adv-x="467" />
<glyph unicode="&#x20ac;" horiz-adv-x="1241" d="M84 422v94h90q0 10 -1 31.5t-1 34.5l2 47h-90v92h98q29 217 154 332.5t338 115.5q176 0 300 -79.5t159 -231.5l-111 -31q-23 94 -104.5 166t-239.5 72q-322 0 -375 -344h402v-92h-412v-47q0 -45 2 -66h410v-94h-400q61 -338 387 -338q254 0 338 217l111 -31 q-49 -133 -163 -214t-292 -81q-211 0 -339 115t-163 332h-100z" />
<glyph unicode="&#x2122;" horiz-adv-x="1585" d="M78 1352v82h545v-82h-230v-584h-86v584h-229zM758 768v666h114l162 -316q53 -102 56 -104h2l51 102l160 318h112v-666h-86v293v70.5t1 73.5t1 62.5v47.5v16h-2l-10 -20q-10 -23 -27.5 -58.5t-34.5 -66.5l-137 -266h-63l-137 266q-16 31 -36 67.5t-30 57.5l-10 22h-2v-272 v-293h-84z" />
<glyph unicode="&#x25fc;" horiz-adv-x="1146" d="M0 0v1147h1147v-1147h-1147z" />
</font>
</defs>
</svg>
