<?xml version="1.0" standalone="no"?>
<!DOCTYPE svg PUBLIC "-//W3C//DTD SVG 1.1//EN" "http://www.w3.org/Graphics/SVG/1.1/DTD/svg11.dtd" >
<svg xmlns="http://www.w3.org/2000/svg">
<metadata></metadata>
<defs>
<font id="novecento_sans_widenormal" horiz-adv-x="1368" >
<font-face units-per-em="2048" ascent="1681" descent="-367" />
<missing-glyph horiz-adv-x="512" />
<glyph horiz-adv-x="2048" />
<glyph horiz-adv-x="2048" />
<glyph unicode="&#xd;" horiz-adv-x="681" />
<glyph unicode=" "  horiz-adv-x="512" />
<glyph unicode="&#x09;" horiz-adv-x="512" />
<glyph unicode="&#xa0;" horiz-adv-x="512" />
<glyph unicode="!" horiz-adv-x="536" d="M158 84q0 45 29.5 73.5t80.5 28.5t81 -28.5t30 -73.5t-30 -74.5t-81 -29.5t-80.5 29.5t-29.5 74.5zM184 332v1102h168v-1102h-168z" />
<glyph unicode="&#x22;" horiz-adv-x="657" d="M100 1434h158l-8 -471h-139zM393 1434h160l-10 -471h-140z" />
<glyph unicode="#" horiz-adv-x="1353" d="M78 219l41 148h196l113 417h-195l41 146h193l57 217h142l-60 -217h330l59 217h142l-60 -217h199l-41 -146h-197l-112 -417h194l-39 -148h-196l-58 -219h-141l57 219h-327l-60 -219h-141l59 219h-196zM455 367h329l113 417h-330z" />
<glyph unicode="$" horiz-adv-x="970" d="M72 285l145 39q12 -100 88 -161t197 -61q109 0 173 52.5t64 146.5q0 29 -5 53.5t-19.5 44t-24.5 33.5t-37.5 27.5t-41 21.5t-49.5 18.5t-49 13.5t-56 13.5t-54 12.5q-63 14 -107 31.5t-96.5 51t-79 92t-26.5 138.5q0 133 83 215t233 98v166h135v-164q283 -29 344 -276 l-144 -39q-41 190 -262 190q-115 0 -176 -50t-61 -132q0 -51 19.5 -87t62.5 -59.5t84 -35.5t114 -29q63 -14 100.5 -24.5t95.5 -37t92 -59t59.5 -90t25.5 -131.5q0 -143 -91 -228t-247 -99v-164h-133v164q-309 33 -356 305z" />
<glyph unicode="%" horiz-adv-x="1456" d="M72 807q0 360 262 360t262 -360q0 -358 -262 -358t-262 358zM184 807q0 -246 150 -246q74 0 110.5 57.5t36.5 188.5t-36.5 189.5t-110.5 58.5q-150 0 -150 -248zM477 0l385 1147h115l-385 -1147h-115zM862 346q0 362 262 362.5t262 -362.5q0 -360 -262 -360t-262 360z M975 346q0 -131 36.5 -188.5t112.5 -57.5q74 0 111 57.5t37 188.5t-37 189.5t-111 58.5q-76 0 -112.5 -58.5t-36.5 -189.5z" />
<glyph unicode="&#x26;" horiz-adv-x="1253" d="M111 309q0 117 65.5 191.5t163.5 93.5v4q-88 18 -152.5 87t-64.5 185q0 145 104.5 222t296.5 77q395 0 484 -303l-148 -41q-59 209 -321 209q-252 0 -252 -176q0 -86 66.5 -140t193.5 -54h649v-144l-182 -2v-145q0 -195 -118 -296.5t-341 -101.5q-217 0 -330.5 91.5 t-113.5 242.5zM272 315q0 -98 72 -152t213 -54q297 0 297 266v145h-313q-123 0 -196 -52t-73 -153z" />
<glyph unicode="'" horiz-adv-x="364" d="M100 1434h158l-8 -471h-139z" />
<glyph unicode="(" horiz-adv-x="729" d="M115 596q0 844 532 1032l47 -151q-418 -143 -418 -880.5t418 -881.5l-47 -153q-532 188 -532 1034z" />
<glyph unicode=")" horiz-adv-x="729" d="M35 -285q418 143 418 880.5t-418 881.5l49 153q530 -188 530 -1034q0 -844 -530 -1032z" />
<glyph unicode="*" horiz-adv-x="1001" d="M158 1139l35 108l249 -78v265h117v-265l250 78l37 -108l-252 -78l156 -217l-95 -68l-153 219l-154 -219l-96 68l156 217z" />
<glyph unicode="+" d="M295 520v142h313v335h152v-335h313v-142h-313v-338h-152v338h-313z" />
<glyph unicode="," horiz-adv-x="458" d="M100 -139q45 16 79 58t42 81q-43 -6 -68.5 17.5t-25.5 66.5q0 41 29.5 68.5t76.5 27.5q55 0 87 -34.5t32 -98.5q0 -76 -50 -151.5t-134 -106.5z" />
<glyph unicode="-" horiz-adv-x="1189" d="M205 520v142h778v-142h-778z" />
<glyph unicode="." horiz-adv-x="458" d="M119 84q0 45 29.5 73.5t81 28.5t81 -28.5t29.5 -73.5t-30 -74.5t-81 -29.5q-53 0 -81.5 29.5t-28.5 74.5z" />
<glyph unicode="/" horiz-adv-x="993" d="M47 0l727 1434h172l-723 -1434h-176z" />
<glyph unicode="0" horiz-adv-x="1067" d="M76 573.5q0 288.5 118.5 442t338 153.5t338 -153.5t118.5 -442t-118.5 -443.5t-338 -155t-338 155t-118.5 443.5zM236 573q0 -451 296.5 -450.5t296.5 450.5q0 449 -296.5 449t-296.5 -449z" />
<glyph unicode="1" horiz-adv-x="700" d="M82 866l303 281h152v-1147h-160v766q0 37 2 88t2 80l2 31h-4l-17 -19q-16 -18 -36.5 -41.5t-30.5 -32.5l-117 -118z" />
<glyph unicode="2" horiz-adv-x="1003" d="M90 866q23 156 136.5 229.5t277.5 73.5q193 0 298 -96t105 -258q0 -125 -67.5 -213t-227.5 -205l-327 -252l2 -4q2 0 25.5 1t62.5 1h82h456v-143h-813v174l416 320q123 98 176 167.5t53 149.5q0 94 -65.5 157.5t-187.5 63.5q-119 0 -181.5 -58.5t-70.5 -148.5z" />
<glyph unicode="3" horiz-adv-x="1001" d="M76 305l141 39q20 -109 98 -169t197 -60q123 0 189.5 63.5t66.5 159.5q0 98 -69.5 148.5t-190.5 50.5h-115v120h111q121 0 186.5 48.5t65.5 140.5q0 90 -64.5 140t-181.5 50q-240 0 -264 -209l-146 39q27 158 141.5 230.5t282.5 72.5q193 0 291 -80.5t98 -216.5 q0 -115 -66.5 -185.5t-160.5 -84.5v-6q104 -12 172 -85t68 -194q0 -154 -114 -248t-298 -94q-176 0 -294 89.5t-144 240.5z" />
<glyph unicode="4" horiz-adv-x="1075" d="M70 299v145l510 703h235v-711h168v-137h-168v-299h-160v299h-585zM219 440l4 -4h189h243v316v264h-6z" />
<glyph unicode="5" horiz-adv-x="1030" d="M90 291l139 35q20 -100 97 -156.5t188 -56.5q121 0 196.5 68.5t75.5 185.5q0 119 -75.5 187.5t-204.5 68.5q-98 0 -161.5 -39t-88.5 -92l-129 36l104 619h633v-150h-524l-33 -190q-6 -41 -14 -80t-12.5 -58.5t-4.5 -21.5l5 -2q33 37 102.5 68.5t159.5 31.5 q180 0 288.5 -104t108.5 -274q0 -176 -116.5 -284t-305.5 -108q-166 0 -281.5 86t-146.5 230z" />
<glyph unicode="6" horiz-adv-x="1021" d="M74 385q0 188 159 395l285 367h174l-387 -500l6 -4q84 98 242 98q170 0 280.5 -103t110.5 -267q0 -174 -121 -285t-315 -111q-193 0 -313.5 110t-120.5 300zM231 375q0 -119 76 -189.5t203 -70.5t204 70.5t79 189.5q0 115 -76 183.5t-207 68.5q-129 0 -204 -69t-75 -183z " />
<glyph unicode="7" horiz-adv-x="962" d="M61 997v150h854v-119l-579 -1028h-166l461 821q23 41 50.5 84t41.5 66l14 24l-4 4q-72 -2 -149 -2h-523z" />
<glyph unicode="8" horiz-adv-x="1028" d="M76 309q0 127 80 202t188 89v6q-68 8 -141.5 77t-73.5 183q0 129 103.5 216t281.5 87q176 0 280.5 -87t104.5 -214q0 -117 -73.5 -185.5t-139.5 -76.5v-6q106 -14 186 -89t80 -202q0 -147 -116.5 -240.5t-319.5 -93.5t-321.5 92t-118.5 242zM229 319q0 -102 78 -160.5 t207 -58.5q131 0 208 58.5t77 160.5q0 100 -77 154.5t-208 54.5t-208 -55.5t-77 -153.5zM268 858q0 -90 70 -140t176 -50q111 2 177.5 55t66.5 137q0 86 -66.5 139.5t-177.5 53.5q-115 0 -180.5 -54.5t-65.5 -140.5z" />
<glyph unicode="9" horiz-adv-x="1038" d="M82 772q0 176 123 286.5t315 110.5q188 0 314.5 -108.5t126.5 -298.5q0 -129 -57.5 -237.5t-178.5 -248.5l-240 -276h-180l422 489l-4 5q-92 -98 -248 -99q-176 0 -284.5 106.5t-108.5 270.5zM233 768q0 -129 81 -192.5t204 -63.5q125 0 205 65.5t80 192.5 q0 129 -81 194.5t-204 65.5t-204 -65.5t-81 -196.5z" />
<glyph unicode=":" horiz-adv-x="458" d="M119 84q0 45 29.5 73.5t81 28.5t81 -28.5t29.5 -73.5t-30 -74.5t-81 -29.5q-53 0 -81.5 29.5t-28.5 74.5zM119 797q0 45 29.5 73.5t81 28.5t81 -29.5t29.5 -72.5q0 -47 -28.5 -76t-82 -29t-82 30t-28.5 75z" />
<glyph unicode=";" horiz-adv-x="458" d="M100 -139q45 16 79 58t42 83q-43 -6 -68.5 17.5t-25.5 64.5q0 43 28.5 69.5t77.5 26.5q55 0 87 -34.5t32 -96.5q0 -76 -50 -152.5t-134 -105.5zM119 797q0 45 29.5 73.5t81 28.5t81 -29.5t29.5 -72.5q0 -47 -28.5 -76t-82 -29t-82 30t-28.5 75z" />
<glyph unicode="&#x3c;" d="M186 528v127l924 445v-150l-741 -356v-4l741 -357v-149z" />
<glyph unicode="=" d="M295 336v141h778v-141h-778zM295 711v141h778v-141h-778z" />
<glyph unicode="&#x3e;" d="M258 84v149l741 357v4l-741 356v150l924 -445v-127z" />
<glyph unicode="?" horiz-adv-x="1153" d="M78 1085q45 180 181 278.5t341 98.5q231 0 353 -115.5t122 -281.5q0 -172 -119.5 -276.5t-316.5 -176.5v-280h-170v362q244 84 340 163t96 187q0 106 -73.5 182.5t-239.5 76.5q-154 0 -237 -67t-119 -194zM440 84q0 45 30 73.5t83 28.5q51 0 81 -28.5t30 -73.5t-30 -74.5 t-81 -29.5q-53 0 -83 29.5t-30 74.5z" />
<glyph unicode="@" horiz-adv-x="1611" d="M78 541q0 322 205.5 534.5t523.5 212.5q324 0 525.5 -210t201.5 -529q0 -186 -78 -299t-223 -113q-82 0 -143.5 44t-77.5 110h-4q-31 -70 -98.5 -112t-157.5 -42q-141 0 -238.5 99.5t-97.5 275.5t90 280.5t239 104.5q172 0 232 -121h6v-239q0 102 -56.5 163.5 t-150.5 61.5q-98 0 -150.5 -67.5t-52.5 -180.5t55.5 -176.5t147.5 -63.5q94 0 146.5 61.5t60.5 160.5v372h158v-424q0 -92 25.5 -136t84.5 -44q76 0 117 77t41 210q0 279 -165 451t-435 172q-272 0 -439 -176.5t-167 -458.5q0 -303 157.5 -468t413.5 -165q59 0 112.5 7 t94.5 18.5t73.5 24.5t58.5 28.5t41 27t28.5 23.5t15.5 12l94 -74q-78 -80 -224 -131t-290 -51q-315 0 -507.5 198.5t-192.5 551.5z" />
<glyph unicode="A" horiz-adv-x="1499" d="M47 0l610 1434h183l610 -1434h-178l-160 381h-727l-160 -381h-178zM449 532h600l-158 375q-20 49 -58 139.5t-61 143.5l-22 53h-5q-2 -2 -139 -334z" />
<glyph unicode="B" horiz-adv-x="1275" d="M158 0v1434h516q193 0 310.5 -99.5t117.5 -253.5q0 -129 -67.5 -209t-157.5 -100v-6q125 -20 225 -111.5t100 -255.5q0 -184 -128 -291.5t-361 -107.5h-555zM324 143h381q150 0 236.5 68t86.5 197q0 131 -94 205.5t-234 74.5h-376v-545zM324 819h333q123 0 200 62.5 t77 175.5q0 106 -78 169.5t-215 63.5h-317v-471z" />
<glyph unicode="C" horiz-adv-x="1574" d="M78 721q0 334 209 537.5t528 203.5q238 0 409 -110.5t242 -280.5l-161 -45q-25 45 -60 86t-93 88t-147.5 76t-193.5 29q-252 0 -408.5 -159t-156.5 -427q0 -266 159.5 -426t401.5 -160q174 0 311 84t205 229l162 -43q-82 -201 -261.5 -315.5t-408.5 -114.5 q-319 0 -528 207t-209 541z" />
<glyph unicode="D" horiz-adv-x="1492" d="M158 0v1434h495q338 0 550 -198t212 -525q0 -326 -210 -518.5t-537 -192.5h-510zM324 156h335q254 0 421 143t167 411.5t-169 418t-431 149.5h-323v-1122z" />
<glyph unicode="E" horiz-adv-x="1228" d="M158 0v1434h964v-156h-798v-451h622v-155h-622v-516h802v-156h-968z" />
<glyph unicode="F" horiz-adv-x="1193" d="M158 0v1434h956v-156h-790v-479h628v-156h-628v-643h-166z" />
<glyph unicode="G" horiz-adv-x="1617" d="M78 719q0 334 210 538.5t531 204.5q236 0 408 -110.5t243 -280.5l-163 -45q-23 43 -55.5 83t-90 88t-147.5 78t-199 30q-252 0 -410.5 -159t-158.5 -425q0 -268 162.5 -428t414.5 -160q184 0 324.5 81t191.5 175v205h-426v156h582v-750h-149q0 72 1 119t1 65.5v22.5h-5 q-76 -86 -210 -160t-320 -74q-311 0 -523 207t-212 539z" />
<glyph unicode="H" horiz-adv-x="1437" d="M158 0v1434h166v-605h790v605h168v-1434h-168v670h-790v-670h-166z" />
<glyph unicode="I" horiz-adv-x="481" d="M158 0v1434h166v-1434h-166z" />
<glyph unicode="J" horiz-adv-x="999" d="M0 137l94 131q104 -135 266 -135q168 0 246 111.5t78 337.5v852h168v-861q0 -291 -125 -445.5t-367 -154.5q-225 0 -360 164z" />
<glyph unicode="K" horiz-adv-x="1329" d="M158 0v1434h166v-447v-309h4l233 248l477 508h201l-539 -574l594 -862l-196 2l-520 741l-254 -264v-477h-166z" />
<glyph unicode="L" horiz-adv-x="1155" d="M158 0v1434h166v-1278h755v-156h-921z" />
<glyph unicode="M" horiz-adv-x="1642" d="M158 0v1434h176l487 -873h4l490 873h172v-1434h-168v645v98.5t1 101.5l2 96t1 87t1 69.5t1 49.5v16h-4l-18 -37q-18 -35 -64.5 -121.5t-103.5 -187.5l-263 -465h-100l-260 459q-59 104 -105.5 192.5t-64.5 122.5l-18 37h-5v-16q0 -18 1.5 -49t1.5 -70v-87t1 -96t1 -101.5 v-98.5v-645h-166z" />
<glyph unicode="N" horiz-adv-x="1488" d="M158 0v1434h168l839 -1155h4v10q0 10 -1 28.5t-1 42v54t-1 62.5t-1 68v70v820h168v-1434h-170l-839 1165h-5v-10q0 -10 1.5 -27.5t1.5 -42v-55.5t1 -63.5t1 -70.5v-75v-821h-166z" />
<glyph unicode="O" horiz-adv-x="1642" d="M78 719q0 330 212 536.5t531 206.5q317 0 530.5 -207.5t213.5 -535.5q0 -330 -213 -538t-531 -208q-319 0 -531 208t-212 538zM246 719q0 -268 162.5 -427t412.5 -159q248 0 412 160t164 426t-164 426t-412 160t-411.5 -160t-163.5 -426z" />
<glyph unicode="P" horiz-adv-x="1179" d="M158 0v1434h434q254 0 394 -115t140 -332q0 -213 -141 -328.5t-393 -115.5h-268v-543h-166zM324 690h272q178 0 270 76t92 219q0 295 -362 295h-272v-590z" />
<glyph unicode="Q" horiz-adv-x="1642" d="M78 719q0 330 212 536.5t531 206.5q317 0 530.5 -207.5t213.5 -535.5q0 -307 -185.5 -509t-474.5 -233v-253h-170v253q-289 31 -473 233t-184 509zM246 719q0 -268 162.5 -427t412.5 -159q248 0 412 160t164 426t-164 426t-412 160t-411.5 -160t-163.5 -426z" />
<glyph unicode="R" horiz-adv-x="1232" d="M158 0v1434h438q252 0 393 -118t141 -329q0 -162 -86 -261t-241 -132l354 -594h-201l-325 563q-31 -2 -131 -2h-176v-561h-166zM324 700h288q348 0 349 281q0 150 -93.5 224.5t-265.5 74.5h-278v-580z" />
<glyph unicode="S" horiz-adv-x="1214" d="M72 377l159 43q12 -147 123 -222t283 -75q160 0 248 64.5t88 191.5q0 43 -11.5 79t-27.5 60.5t-46 45t-55.5 32.5t-66.5 24.5t-67.5 17.5t-72.5 14.5t-69 13.5q-74 16 -123 31.5t-115.5 47t-106.5 71.5t-69.5 105.5t-29.5 149.5q0 186 129 288.5t356 102.5q207 0 343 -88 t181 -268l-159 -43q-61 250 -367 250q-154 0 -233.5 -62.5t-79.5 -173.5q0 -55 22.5 -97t52 -68.5t88 -48t101.5 -32t121 -26.5q78 -14 132 -28.5t124.5 -47.5t113.5 -75t74 -112.5t31 -160.5q0 -201 -132 -304.5t-376 -103.5q-98 0 -184 18.5t-169 61.5t-138.5 125 t-71.5 199z" />
<glyph unicode="T" horiz-adv-x="1304" d="M76 1278v156h1153v-156h-494v-1278h-168v1278h-491z" />
<glyph unicode="U" horiz-adv-x="1425" d="M139 598v836h170v-836q0 -236 98.5 -350.5t305.5 -114.5t307 114.5t100 350.5v836h166v-836q0 -303 -147.5 -464t-426 -161t-426 160t-147.5 465z" />
<glyph unicode="V" horiz-adv-x="1404" d="M35 1434h186l293 -752q172 -442 191 -496h4q27 82 186 486l297 762h180l-569 -1434h-199z" />
<glyph unicode="W" horiz-adv-x="1992" d="M37 1434h184l213 -682q160 -510 164 -519h4q2 2 135 453l170 555h195l168 -557q20 -68 55 -185.5t57.5 -190t22.5 -75.5h4q0 2 23.5 75t65.5 210t69 221l223 695h166l-461 -1434h-176l-205 647q-29 90 -57.5 189.5t-44.5 150.5l-15 51h-4l-14 -51q-14 -51 -44 -154.5 t-58 -199.5l-197 -633h-180z" />
<glyph unicode="X" horiz-adv-x="1392" d="M41 0l555 745l-510 689h203l252 -344q164 -223 166 -224h2l16 23q14 20 55 78.5t86 122.5l244 344h199l-506 -691l549 -743h-209l-264 360q-53 72 -101.5 138.5t-64.5 91.5l-19 22h-2q-2 0 -190 -256l-258 -356h-203z" />
<glyph unicode="Y" horiz-adv-x="1345" d="M35 1434h192l322 -471q33 -45 64.5 -92.5t45.5 -71.5l17 -23h4l14 23q14 23 45 68.5t64 90.5l325 476h183l-555 -811v-623h-168v623z" />
<glyph unicode="Z" horiz-adv-x="1339" d="M86 0v154l803 946q45 53 85 96t56 61l17 17l-3 6h-8q-8 0 -23.5 -1t-35 -1h-48h-59.5h-764v156h1147v-160l-786 -928q-53 -63 -95 -110.5t-57 -63.5l-16 -14l4 -4h8q10 0 25.5 1t37 1h50.5h57h772v-156h-1167z" />
<glyph unicode="[" horiz-adv-x="745" d="M193 -430v2064h471v-151h-308v-1762h308v-151h-471z" />
<glyph unicode="\" horiz-adv-x="993" d="M47 1434h174l725 -1434h-176z" />
<glyph unicode="]" horiz-adv-x="745" d="M82 -274h307v1761h-307v151h471v-2064h-471v152z" />
<glyph unicode="^" d="M131 829l477 615h152l475 -615l-123 -81l-428 557l-428 -557z" />
<glyph unicode="_" horiz-adv-x="1492" d="M158 0h1177v-131h-1177v131z" />
<glyph unicode="`" horiz-adv-x="1091" d="M371 1829l137 45l213 -330h-156z" />
<glyph unicode="a" horiz-adv-x="1220" d="M47 0l469 1147h189l469 -1147h-168l-121 307h-553l-119 -307h-166zM387 446h442l-100 256q-117 293 -117 308h-6q0 -8 -123 -322z" />
<glyph unicode="b" horiz-adv-x="1110" d="M158 0v1147h456q152 0 249.5 -84t97.5 -203q-1 -195 -187 -248v-6q104 -18 182 -90t78 -194q0 -141 -105.5 -231.5t-291.5 -90.5h-479zM317 135h316q104 0 170.5 52.5t66.5 142.5q0 92 -69.5 146t-175.5 54h-308v-395zM317 659h267q88 0 152.5 47.5t64.5 133.5 q0 74 -58.5 123t-156.5 49h-269v-353z" />
<glyph unicode="c" horiz-adv-x="1320" d="M78 573q0 256 173 426t433 170q180 0 324.5 -86t214.5 -252l-152 -40q-135 231 -385 231q-195 0 -320.5 -126t-125.5 -323q0 -199 126 -324.5t318 -125.5q135 0 236.5 63.5t156.5 165.5l154 -41q-74 -154 -217.5 -245t-327.5 -91q-262 0 -435 169t-173 429z" />
<glyph unicode="d" horiz-adv-x="1265" d="M158 0v1147h395q283 0 459 -156.5t176 -421t-174 -417t-451 -152.5h-405zM317 150h242q211 0 339 107.5t128 312t-129 316t-346 111.5h-234v-847z" />
<glyph unicode="e" horiz-adv-x="1075" d="M158 0v1147h805v-150h-646v-331h498v-146h-498v-370h656v-150h-815z" />
<glyph unicode="f" horiz-adv-x="1019" d="M158 0v1147h784v-150h-625v-372h465v-150h-465v-475h-159z" />
<glyph unicode="g" horiz-adv-x="1376" d="M78 573q0 258 172 427t432 169q174 0 322.5 -82.5t220.5 -255.5l-148 -38q-45 94 -146.5 162.5t-244.5 68.5q-197 0 -321.5 -125t-124.5 -328q0 -199 128 -323.5t334 -124.5q135 0 249 58.5t157 127.5v146h-348v143h493v-598h-143v67.5v48t1 29t1 16.5v7h-4 q-162 -193 -428 -193q-258 0 -430 170t-172 428z" />
<glyph unicode="h" horiz-adv-x="1261" d="M158 0v1147h159v-481h629v481h160v-1147h-160v516h-629v-516h-159z" />
<glyph unicode="i" horiz-adv-x="475" d="M158 0v1147h159v-1147h-159z" />
<glyph unicode="j" horiz-adv-x="868" d="M0 102l88 117q84 -96 215 -96q135 0 196.5 86t61.5 260v678h160v-684q0 -236 -106.5 -362t-309.5 -126q-193 0 -305 127z" />
<glyph unicode="k" horiz-adv-x="1167" d="M158 0v1147h159v-326v-65.5v-58t-1 -49t-1 -40v-29v-18.5v-8h4q59 63 156 162l418 432h203l-445 -457l482 -690h-185l-416 584l-215 -222v-362h-159z" />
<glyph unicode="l" horiz-adv-x="989" d="M158 0v1147h159v-997h598v-150h-757z" />
<glyph unicode="m" horiz-adv-x="1435" d="M158 0v1147h194l242 -434q37 -66 69.5 -127.5t45.5 -87.5l14 -27h4q2 0 15.5 25.5t47 90t68.5 128.5l238 432h182v-1147h-160v582l2 331h-4l-346 -634h-108l-349 643h-4v-25q0 -25 1 -62.5t2 -80.5t1 -88v-76v-590h-155z" />
<glyph unicode="n" horiz-adv-x="1290" d="M158 0v1147h164l649 -889h4v8v19.5v30t-1 39t-1 46v50v53.5v643h160v-1147h-164l-652 903h-4v-8q0 -8 1 -21.5t1 -31v-41t1 -49t1 -54v-57.5v-641h-159z" />
<glyph unicode="o" horiz-adv-x="1361" d="M78 571q0 260 173 429t429 169t429 -169t173 -429q0 -256 -173 -426t-429 -170t-429 170t-173 426zM240 571q0 -197 126 -322.5t314 -125.5t314 126t126 322q0 199 -125 325t-315.5 126t-315 -126t-124.5 -325z" />
<glyph unicode="p" horiz-adv-x="1032" d="M158 0v1147h372q213 0 330 -96.5t117 -262.5q0 -168 -116 -262t-331 -94h-213v-432h-159zM317 567h220q135 0 206.5 57.5t71.5 160t-70.5 161t-207.5 58.5h-220v-437z" />
<glyph unicode="q" horiz-adv-x="1357" d="M78 571q0 260 173 429t429 169t429 -169t173 -429q0 -236 -147.5 -399.5t-376.5 -189.5v-220h-160v220q-227 29 -373.5 191.5t-146.5 397.5zM240 571q0 -197 126 -322.5t314 -125.5t314 126t126 322q0 199 -125 325t-315.5 126t-315 -126t-124.5 -325z" />
<glyph unicode="r" horiz-adv-x="1095" d="M158 0v1147h377q213 0 330.5 -90t117.5 -256q0 -127 -69.5 -209t-188.5 -109l295 -483h-174l-275 455q-45 -2 -127 -2h-127v-453h-159zM317 582h224q281 0 280 209q0 210 -277 210h-3h-224v-419z" />
<glyph unicode="s" horiz-adv-x="1024" d="M72 285l145 39q12 -100 95 -160t218 -60q121 0 191 51.5t70 149.5q0 33 -9.5 59.5t-20.5 46t-38 36t-44 26.5t-57 21.5t-60.5 16.5t-71 15.5t-70.5 14.5q-68 14 -113 30.5t-99 49t-83 91t-29 138.5q0 156 107.5 237.5t302.5 81.5q369 0 436 -278l-141 -39 q-51 188 -285 188q-123 0 -189.5 -48t-66.5 -136q0 -94 73 -134t236 -71q61 -12 98.5 -21t97.5 -36t96 -59.5t63.5 -92t27.5 -135.5q0 -164 -113.5 -248t-308.5 -84q-76 0 -143.5 13.5t-136 45.5t-115.5 96.5t-63 154.5z" />
<glyph unicode="t" horiz-adv-x="1112" d="M76 997v150h960v-150h-401v-997h-160v997h-399z" />
<glyph unicode="u" horiz-adv-x="1251" d="M139 494v653h162v-670q0 -354 325.5 -354t325.5 354v670h160v-653q0 -258 -126 -388.5t-361.5 -130.5t-360.5 130.5t-125 388.5z" />
<glyph unicode="v" horiz-adv-x="1234" d="M35 1147h176l240 -561q51 -121 93 -222.5t58 -142.5l19 -43h4l6 15q6 16 19.5 49.5t31.5 78t48 115t63 148.5l237 563h170l-491 -1147h-185z" />
<glyph unicode="w" horiz-adv-x="1665" d="M37 1147h170l172 -531q37 -111 69.5 -215t47.5 -147l12 -45h2l14 41q12 43 41 136t58 183l135 432h166l133 -432q29 -90 56.5 -183t39.5 -136l12 -41h2l15 45q14 43 47 146.5t69 215.5l172 531h158l-377 -1147h-161l-144 446q-31 96 -58.5 186.5t-39.5 129.5l-12 41h-5 l-12 -37q-12 -39 -43 -135t-59 -187l-142 -444h-161z" />
<glyph unicode="x" horiz-adv-x="1179" d="M41 0l444 592l-409 555h190l166 -223q45 -59 89 -117.5t61 -81.5l16 -20h2l16 20q16 23 62.5 85t89.5 122l156 215h176l-412 -557l451 -590h-193l-205 266q-47 61 -88 115.5t-55 75.5l-16 20h-2q-2 0 -162 -213l-195 -264h-182z" />
<glyph unicode="y" horiz-adv-x="1107" d="M35 1147h182l184 -281q41 -59 80 -119.5t60 -91.5l18 -30h4l19 30q20 29 61 91.5t80 121.5l182 279h168l-440 -674v-473h-160v473z" />
<glyph unicode="z" horiz-adv-x="1140" d="M86 0v152l573 634q63 72 112.5 124.5t64.5 68.5l14 14l-4 4h-146h-598v150h953v-152l-549 -616q-76 -84 -129 -141.5t-70 -71.5l-14 -14l4 -5q61 2 156 3h602v-150h-969z" />
<glyph unicode="{" horiz-adv-x="825" d="M158 526v148q57 10 88 41q57 66 57 213v241q0 233 116 348t322 115v-145q-133 0 -208.5 -70t-75.5 -256v-235q0 -74 -14.5 -132.5t-34 -92t-44 -57t-39 -32t-26.5 -12.5q10 -2 25.5 -11t40 -34t44 -59.5t34 -93t14.5 -130.5v-233q0 -186 75.5 -257t208.5 -71v-143 q-207 0 -322.5 114.5t-115.5 348.5v241q2 242 -141 254h-4z" />
<glyph unicode="|" horiz-adv-x="382" d="M123 -152v1739h137v-1739h-137z" />
<glyph unicode="}" horiz-adv-x="825" d="M84 -287q133 0 209 70t76 256v235q0 90 20.5 158t51 100.5t51 47t36.5 20.5q-10 2 -26.5 11.5t-40 34t-44 58t-34.5 92t-14 130.5v235q0 186 -76 256t-209 70v145q207 0 322.5 -115.5t115.5 -349.5v-239q0 -242 144 -256h4v-146q-66 -10 -99 -53q-49 -68 -49 -203v-239 q0 -233 -115.5 -348t-322.5 -115v145z" />
<glyph unicode="~" d="M246 606q86 100 229 101q76 0 205 -44.5t207 -44.5q113 1 207 91l26 -138q-23 -31 -84 -62.5t-141 -31.5q-76 0 -206 44t-208 44q-115 0 -205 -94z" />
<glyph unicode="&#xa1;" horiz-adv-x="536" d="M158 1350q0 45 29.5 74.5t80.5 29.5q53 0 82 -29.5t29 -74.5t-30 -74t-81 -29t-80.5 29t-29.5 74zM186 0v1102h166v-1102h-166z" />
<glyph unicode="&#xa2;" horiz-adv-x="1196" d="M78 578q0 219 127 362t336 166v213h139v-213q145 -14 259 -94t167 -230l-148 -41q-41 104 -128 166t-212 62q-174 0 -278 -106.5t-104 -285t104 -286t272 -107.5q238 0 338 207l148 -41q-55 -129 -167 -211t-251 -98v-213h-137v213q-203 23 -334 169t-131 368z" />
<glyph unicode="&#xa3;" horiz-adv-x="1044" d="M72 498v131h110q-16 147 -16 207q0 160 98 246.5t271 86.5q356 0 403 -321l-150 -41q-18 113 -77.5 167t-169.5 54q-219 0 -219 -225q0 -20 14 -174h407v-131h-391q10 -96 10 -152q0 -160 -81 -196l2 -5q16 4 350 5h328v-150h-887v150q78 14 104.5 60t26.5 134 q0 47 -8 154h-125z" />
<glyph unicode="&#xa4;" horiz-adv-x="1320" d="M84 96l149 152q-111 143 -110 323q0 197 123 342l-146 144l88 88l148 -146q143 113 323 113q182 0 328 -111l146 144l88 -88l-146 -146q125 -145 125 -340q0 -176 -113 -325l150 -150l-88 -88l-150 150q-152 -125 -340 -125q-190 0 -337 125l-150 -150zM274 571.5 q0 -163.5 113 -275.5t272 -112q164 0 277 112t113 275.5t-113 276.5t-277 113q-160 0 -272.5 -113t-112.5 -276.5z" />
<glyph unicode="&#xa5;" horiz-adv-x="1019" d="M41 1147h178l197 -359q78 -145 94 -161h4q16 16 94 161l197 359h172l-229 -399h161v-123h-233l-60 -105h293v-125h-321v-395h-160v395h-317v125h290l-59 105h-231v123h159z" />
<glyph unicode="&#xa6;" horiz-adv-x="382" d="M123 -152v584h137v-584h-137zM123 1004v583h137v-583h-137z" />
<glyph unicode="&#xa7;" d="M176 262l158 41q18 -205 364 -205q311 0 312 183q0 88 -80 122.5t-301 71.5q-35 4 -54 8q-78 12 -134 27.5t-119.5 45.5t-97.5 79t-34 117q0 166 195 229q-174 66 -174 221q0 137 123 198.5t313 61.5q432 0 500 -286l-141 -39q-57 207 -361 206q-268 0 -268 -139 q0 -88 121 -127q57 -18 260 -53q86 -14 142 -26.5t116.5 -34t93.5 -48t54.5 -69.5t21.5 -98q-1 -173 -189 -232q182 -70 183 -242q0 -154 -124 -227.5t-345 -73.5q-94 0 -176 13.5t-162 43t-132.5 89t-64.5 143.5zM344 772q0 -45 28.5 -77.5t81 -52t115 -33t144.5 -27.5 q18 -2 28 -4q39 -4 99 -17q190 35 190 162q0 41 -20.5 71.5t-49 49t-82 34t-92 21.5t-106.5 16q-29 4 -43 7l-78 14q-215 -33 -215 -164z" />
<glyph unicode="&#xa8;" horiz-adv-x="1091" d="M258 1683q0 41 27.5 69t66.5 28t66.5 -29t27.5 -67.5t-28.5 -66.5t-67.5 -28t-65.5 28t-26.5 66zM643 1683q0 41 28.5 69t67.5 28t67 -29t28 -67.5t-28 -66.5t-67 -28t-67.5 28t-28.5 66z" />
<glyph unicode="&#xa9;" horiz-adv-x="1646" d="M78 542.5q0 323.5 216 534.5t527 211q313 0 529.5 -211t216.5 -534.5t-216 -534.5t-530 -211q-311 0 -527 211t-216 534.5zM178 545q0 -289 182.5 -470t460.5 -181q281 0 464 180t183 471q0 289 -183 468t-463.5 179t-462 -179t-181.5 -468zM416 543q0 174 112.5 282.5 t286.5 108.5q123 0 219 -60.5t133 -168.5l-108 -31q-14 49 -73.5 99t-166.5 50q-125 0 -203.5 -75.5t-78.5 -202.5q0 -125 76.5 -203t201.5 -78q168 0 248 137l111 -34q-47 -98 -143.5 -156.5t-219.5 -58.5q-174 0 -284.5 109.5t-110.5 281.5z" />
<glyph unicode="&#xaa;" horiz-adv-x="819" d="M72 229v113h676v-113h-676zM72 481l274 666h127l272 -666h-114l-64 160h-319l-64 -160h-112zM283 729h249l-53 131q-16 43 -34.5 89t-26.5 67l-8 22h-4l-9 -22q-8 -20 -26.5 -66.5t-34.5 -89.5z" />
<glyph unicode="&#xab;" horiz-adv-x="1325" d="M123 571l481 480l96 -97l-393 -381v-6l393 -381l-96 -96zM625 571l481 480l96 -97l-393 -381v-6l393 -381l-96 -96z" />
<glyph unicode="&#xad;" horiz-adv-x="1189" d="M205 520v142h778v-142h-778z" />
<glyph unicode="&#xae;" horiz-adv-x="1646" d="M78 542.5q0 323.5 216 534.5t527 211q313 0 529.5 -211t216.5 -534.5t-216 -534.5t-530 -211q-311 0 -527 211t-216 534.5zM178 545q0 -289 182.5 -470t460.5 -181q281 0 464 180t183 471q0 289 -183 468t-463.5 179t-462 -179t-181.5 -468zM561 168v756h258 q141 0 220 -61.5t79 -170.5q0 -164 -166 -203l187 -321h-133l-175 301q-27 -2 -73 -2h-74v-299h-123zM684 563h141q170 0 170 125q0 127 -170 127h-141v-252z" />
<glyph unicode="&#xaf;" horiz-adv-x="1091" d="M248 1587v142h596v-142h-596z" />
<glyph unicode="&#xb0;" horiz-adv-x="534" d="M35 1435.5q0 100.5 64.5 165t167 64.5t168 -64.5t65.5 -165t-65.5 -165t-168 -64.5t-167 64.5t-64.5 165zM141 1436q0 -53 35 -89t90 -36q57 0 92 34.5t35 90.5q0 57 -34.5 92t-92.5 35q-55 0 -90 -35t-35 -92z" />
<glyph unicode="&#xb1;" d="M295 0v141h778v-141h-778zM295 631v141h313l-2 330h154v-330h313v-141h-313v-326h-152v326h-313z" />
<glyph unicode="&#xb2;" horiz-adv-x="696" d="M66 967v129l333 252q113 78 113 182q0 66 -42 104.5t-122 38.5q-76 0 -118 -31.5t-60 -105.5l-98 29q49 217 284 217q129 0 202 -65.5t73 -178.5q0 -137 -146 -252q-45 -37 -115.5 -89t-116.5 -86t-50 -38l4 -6q55 6 151 6h279v-106h-571z" />
<glyph unicode="&#xb3;" horiz-adv-x="696" d="M55 1194l109 31q4 -78 56 -124t138 -46q82 0 126 41t44 100q0 63 -48 102t-128 39h-67v82h63q78 0 125 39t47 96q0 51 -41 88t-131 37q-82 0 -120 -34.5t-52 -108.5l-100 29q35 217 282 217q135 0 205 -59.5t70 -151.5q0 -78 -48 -130.5t-116 -58.5v-6q74 -10 124 -61 t50 -133q0 -102 -79 -167t-197 -65q-131 0 -214 67.5t-98 176.5z" />
<glyph unicode="&#xb4;" horiz-adv-x="1091" d="M371 1544l213 330l137 -45l-195 -285h-155z" />
<glyph unicode="&#xb6;" horiz-adv-x="1187" d="M78 784q0 168 109.5 265.5t324.5 97.5h518v-1434h-168v1278h-182v-1278h-168v703q-215 0 -324.5 98t-109.5 270z" />
<glyph unicode="&#xb7;" horiz-adv-x="458" d="M119 577.5q0 45.5 29.5 74t81 28.5t81 -28.5t29.5 -74t-28.5 -75t-82 -29.5t-82 29.5t-28.5 75z" />
<glyph unicode="&#xb8;" horiz-adv-x="1091" d="M356 -207q47 -29 150 -29q145 0 145 76q0 88 -229 90v119h123v-53q231 -18 231 -176q0 -172 -250 -172q-109 0 -170 30v115z" />
<glyph unicode="&#xb9;" horiz-adv-x="696" d="M96 1552l223 213h113v-692h186v-106h-489v106h184v377q0 133 9 174h-7l-8 -8q-8 -8 -22.5 -23.5t-24.5 -25.5l-88 -88z" />
<glyph unicode="&#xba;" horiz-adv-x="854" d="M72 813q0 154 102 255t252 101q147 0 251.5 -101t104.5 -255q0 -150 -104.5 -251t-251.5 -101q-150 0 -252 100t-102 252zM94 227v113h668v-113h-668zM182 813q0 -106 68.5 -176t175 -70t175.5 70t69 176q0 109 -69 179.5t-175.5 70.5t-175 -70.5t-68.5 -179.5z" />
<glyph unicode="&#xbb;" horiz-adv-x="1325" d="M123 186l393 381v6l-393 381l96 97l481 -480l-481 -481zM625 186l393 381v6l-393 381l96 97l481 -480l-481 -481z" />
<glyph unicode="&#xbc;" horiz-adv-x="1675" d="M96 1221l223 213h113v-695h186v-104h-489v104h184v379q0 133 9 174h-7l-8 -8q-8 -8 -22.5 -23.5t-24.5 -25.5l-88 -88zM559 0l428 1434h129l-430 -1434h-127zM1012 203v106l340 492h157v-492h136v-106h-136v-203h-114v203h-383zM1130 313l5 -6h6h17t24.5 1t30 1h32.5h150 v189q0 47 2 93t4 73l2 26h-8q-2 0 -132 -186.5t-133 -190.5z" />
<glyph unicode="&#xbd;" horiz-adv-x="1675" d="M96 1221l223 213h113v-693h186v-106h-489v106h184v377q0 133 9 174h-7l-8 -8q-8 -8 -22.5 -23.5t-24.5 -25.5l-88 -88zM559 0l428 1434h129l-430 -1434h-127zM1044 0v131l336 252q113 82 113 182q0 63 -43 103.5t-123 40.5q-76 0 -118 -32t-60 -106l-98 29 q49 217 286 217q127 0 200 -65.5t73 -178.5q0 -137 -146 -251q-47 -37 -115.5 -89.5t-115.5 -87t-49 -36.5l2 -7q37 4 151 4h281v-106h-574z" />
<glyph unicode="&#xbe;" horiz-adv-x="1675" d="M55 862l109 31q4 -78 56 -124t138 -46q82 0 126 41t44 100q0 63 -48 102.5t-128 39.5h-67v81h63q78 0 125 39t47 97q0 51 -41 88t-131 37q-82 0 -120 -35t-52 -109l-100 29q35 217 282 217q135 0 205 -59.5t70 -151.5q0 -78 -48 -130t-116 -58v-7q74 -10 124 -61t50 -133 q0 -102 -79 -167t-197 -65q-131 0 -214 68t-98 176zM559 0l428 1434h129l-430 -1434h-127zM1012 203v106l340 492h157v-492h136v-106h-136v-203h-114v203h-383zM1130 313l5 -6h6h17t24.5 1t30 1h32.5h150v189q0 47 2 93t4 73l2 26h-8q-2 0 -132 -186.5t-133 -190.5z" />
<glyph unicode="&#xbf;" horiz-adv-x="1153" d="M78 369q0 90 37 164.5t103.5 129t136 90t159.5 68.5v281h170v-363q-244 -84 -339 -162.5t-95 -187.5q0 -106 72.5 -182t240.5 -76q285 0 355 260l157 -43q-45 -180 -180 -278.5t-340 -98.5q-233 0 -355 116t-122 282zM492 1350q0 45 29.5 74.5t80.5 29.5t81 -29.5 t30 -74.5t-30 -74t-81 -29q-53 0 -81.5 29t-28.5 74z" />
<glyph unicode="&#xc0;" horiz-adv-x="1499" d="M47 0l610 1434h183l610 -1434h-178l-160 381h-727l-160 -381h-178zM449 532h600l-158 375q-20 49 -58 139.5t-61 143.5l-22 53h-5q-2 -2 -139 -334zM496 1829l137 45l213 -330h-156z" />
<glyph unicode="&#xc1;" horiz-adv-x="1499" d="M47 0l610 1434h183l610 -1434h-178l-160 381h-727l-160 -381h-178zM449 532h600l-158 375q-20 49 -58 139.5t-61 143.5l-22 53h-5q-2 -2 -139 -334zM639 1544l213 330l137 -45l-194 -285h-156z" />
<glyph unicode="&#xc2;" horiz-adv-x="1499" d="M47 0l610 1434h183l610 -1434h-178l-160 381h-727l-160 -381h-178zM449 532h600l-158 375q-20 49 -58 139.5t-61 143.5l-22 53h-5q-2 -2 -139 -334zM451 1640l294 242l291 -242l-78 -94l-213 180l-215 -178z" />
<glyph unicode="&#xc3;" horiz-adv-x="1499" d="M47 0l610 1434h183l610 -1434h-178l-160 381h-727l-160 -381h-178zM418 1726q59 72 168 72q57 0 147 -36t154 -36q84 0 141 54l33 -121q-51 -66 -164 -66q-59 0 -150.5 35t-148.5 35q-88 0 -145 -57zM449 532h600l-158 375q-20 49 -58 139.5t-61 143.5l-22 53h-5 q-2 -2 -139 -334z" />
<glyph unicode="&#xc4;" horiz-adv-x="1499" d="M47 0l610 1434h183l610 -1434h-178l-160 381h-727l-160 -381h-178zM449 532h600l-158 375q-20 49 -58 139.5t-61 143.5l-22 53h-5q-2 -2 -139 -334zM461 1683.5q0 38.5 27.5 67.5t66.5 29t66.5 -28t27.5 -69q0 -39 -27.5 -66.5t-66.5 -27.5t-66.5 28t-27.5 66.5z M848 1683q0 41 27.5 69t66.5 28t66.5 -28t27.5 -69q0 -39 -27.5 -66.5t-66.5 -27.5t-66.5 28t-27.5 66z" />
<glyph unicode="&#xc5;" horiz-adv-x="1499" d="M47 0l610 1434h183l610 -1434h-178l-160 381h-727l-160 -381h-178zM449 532h600l-158 375q-20 49 -58 139.5t-61 143.5l-22 53h-5q-2 -2 -139 -334zM539 1706q0 86 58 138t151 52q94 0 151 -52t57 -138q0 -88 -57 -140.5t-151 -52.5q-92 0 -150.5 53.5t-58.5 139.5z M649 1706q0 -43 28 -68.5t71 -25.5q45 0 71.5 25.5t26.5 68.5q0 41 -26.5 66.5t-71.5 25.5q-43 0 -71 -25.5t-28 -66.5z" />
<glyph unicode="&#xc6;" horiz-adv-x="2017" d="M47 0l612 1434h1252v-150h-797v-463h629v-143h-629v-528h801v-150h-965v387h-563l-162 -387h-178zM449 530h501v754h-186z" />
<glyph unicode="&#xc7;" horiz-adv-x="1574" d="M78 721q0 334 209 537.5t528 203.5q238 0 409 -110.5t242 -280.5l-161 -45q-25 45 -60 86t-93 88t-147.5 76t-193.5 29q-252 0 -408.5 -159t-156.5 -427q0 -266 159.5 -426t401.5 -160q174 0 311 84t205 229l162 -43q-72 -176 -218.5 -285.5t-338.5 -135.5 q143 -37 143 -162q0 -172 -250 -172q-109 0 -170 30v115q47 -29 150 -29q145 0 145 76q0 88 -229 90v50q-283 33 -461 233.5t-178 507.5z" />
<glyph unicode="&#xc8;" horiz-adv-x="1228" d="M158 0v1434h964v-156h-798v-451h622v-155h-622v-516h802v-156h-968zM393 1829l137 45l213 -330h-155z" />
<glyph unicode="&#xc9;" horiz-adv-x="1228" d="M158 0v1434h964v-156h-798v-451h622v-155h-622v-516h802v-156h-968zM539 1544l213 330l137 -45l-195 -285h-155z" />
<glyph unicode="&#xca;" horiz-adv-x="1228" d="M158 0v1434h964v-156h-798v-451h622v-155h-622v-516h802v-156h-968zM350 1640l293 242l293 -242l-80 -94l-213 180l-215 -178z" />
<glyph unicode="&#xcb;" horiz-adv-x="1228" d="M158 0v1434h964v-156h-798v-451h622v-155h-622v-516h802v-156h-968zM358 1683q0 41 28 69t69 28q39 0 65.5 -28t26.5 -69q0 -39 -27.5 -66.5t-66.5 -27.5t-67 28t-28 66zM745 1683q0 41 28 69t67 28q41 0 68.5 -28t27.5 -69q0 -39 -28.5 -66.5t-67.5 -27.5t-67 28t-28 66 z" />
<glyph unicode="&#xcc;" horiz-adv-x="481" d="M-12 1829l139 45l211 -330h-156zM158 0v1434h166v-1434h-166z" />
<glyph unicode="&#xcd;" horiz-adv-x="481" d="M133 1544l213 330l137 -45l-194 -285h-156zM158 0v1434h166v-1434h-166z" />
<glyph unicode="&#xce;" horiz-adv-x="481" d="M4 1647l238 235l237 -237l-84 -91l-153 160l-154 -158zM158 0v1434h166v-1434h-166z" />
<glyph unicode="&#xcf;" horiz-adv-x="481" d="M23 1683.5q0 38.5 27.5 67.5t66.5 29t66.5 -28t27.5 -69q0 -39 -27.5 -66.5t-66.5 -27.5t-66.5 28t-27.5 66.5zM158 0v1434h166v-1434h-166zM272 1683q0 41 28 69t67 28t66.5 -28t27.5 -69q0 -39 -27.5 -66.5t-66.5 -27.5t-67 28t-28 66z" />
<glyph unicode="&#xd0;" horiz-adv-x="1492" d="M23 674v149h135v611h495q338 0 550 -198t212 -525q0 -326 -210 -518.5t-537 -192.5h-510v674h-135zM324 156h335q254 0 421 143t167 411.5t-169 418t-431 149.5h-323v-455h362v-149h-362v-518z" />
<glyph unicode="&#xd1;" horiz-adv-x="1488" d="M158 0v1434h168l839 -1155h4v10q0 10 -1 28.5t-1 42v54t-1 62.5t-1 68v70v820h168v-1434h-170l-839 1165h-5v-10q0 -10 1.5 -27.5t1.5 -42v-55.5t1 -63.5t1 -70.5v-75v-821h-166zM426 1726q57 72 166 72q55 0 147 -36t154 -36q84 1 141 54l35 -121q-57 -66 -166 -66 q-59 0 -150 35t-147 35q-94 0 -145 -57z" />
<glyph unicode="&#xd2;" horiz-adv-x="1642" d="M78 719q0 330 212 536.5t531 206.5q317 0 530.5 -207.5t213.5 -535.5q0 -330 -213 -538t-531 -208q-319 0 -531 208t-212 538zM246 719q0 -268 162.5 -427t412.5 -159q248 0 412 160t164 426t-164 426t-412 160t-411.5 -160t-163.5 -426zM569 1829l138 45l213 -330h-156z " />
<glyph unicode="&#xd3;" horiz-adv-x="1642" d="M78 719q0 330 212 536.5t531 206.5q317 0 530.5 -207.5t213.5 -535.5q0 -330 -213 -538t-531 -208q-319 0 -531 208t-212 538zM246 719q0 -268 162.5 -427t412.5 -159q248 0 412 160t164 426t-164 426t-412 160t-411.5 -160t-163.5 -426zM715 1544l213 330l137 -45 l-195 -285h-155z" />
<glyph unicode="&#xd4;" horiz-adv-x="1642" d="M78 719q0 330 212 536.5t531 206.5q317 0 530.5 -207.5t213.5 -535.5q0 -330 -213 -538t-531 -208q-319 0 -531 208t-212 538zM246 719q0 -268 162.5 -427t412.5 -159q248 0 412 160t164 426t-164 426t-412 160t-411.5 -160t-163.5 -426zM526 1640l293 242l293 -242 l-80 -94l-213 180l-215 -178z" />
<glyph unicode="&#xd5;" horiz-adv-x="1642" d="M78 719q0 330 212 536.5t531 206.5q317 0 530.5 -207.5t213.5 -535.5q0 -330 -213 -538t-531 -208q-319 0 -531 208t-212 538zM246 719q0 -268 162.5 -427t412.5 -159q248 0 412 160t164 426t-164 426t-412 160t-411.5 -160t-163.5 -426zM494 1726q51 72 165 72 q57 0 147.5 -36t154.5 -36q84 1 141 54l35 -121q-57 -66 -166 -66q-59 0 -150.5 35t-146.5 35q-94 0 -146 -57z" />
<glyph unicode="&#xd6;" horiz-adv-x="1642" d="M78 719q0 330 212 536.5t531 206.5q317 0 530.5 -207.5t213.5 -535.5q0 -330 -213 -538t-531 -208q-319 0 -531 208t-212 538zM246 719q0 -268 162.5 -427t412.5 -159q248 0 412 160t164 426t-164 426t-412 160t-411.5 -160t-163.5 -426zM535 1683q0 41 27.5 69t68.5 28 q39 0 65.5 -28t26.5 -69q0 -39 -27.5 -66.5t-66.5 -27.5t-66.5 28t-27.5 66zM922 1683q0 41 27.5 69t66.5 28q41 0 68.5 -28t27.5 -69q0 -39 -28.5 -66.5t-67.5 -27.5t-66.5 28t-27.5 66z" />
<glyph unicode="&#xd7;" d="M328 340l256 254l-256 256l100 100l256 -254l256 254l100 -102l-254 -254l256 -254l-102 -102l-256 256l-256 -256z" />
<glyph unicode="&#xd8;" horiz-adv-x="1642" d="M78 719q0 330 212 536.5t531 206.5q217 0 393 -102l152 196l127 -94l-152 -196q223 -213 224 -547q0 -330 -213 -538t-531 -208q-217 0 -389 101l-153 -203l-125 96l151 201q-227 207 -227 551zM246 719q0 -258 160 -422l710 934q-135 74 -295 74q-248 0 -411.5 -160 t-163.5 -426zM530 203q133 -70 291 -70q246 0 411 160t165 426q0 254 -156 416z" />
<glyph unicode="&#xd9;" horiz-adv-x="1425" d="M139 598v836h170v-836q0 -236 98.5 -350.5t305.5 -114.5t307 114.5t100 350.5v836h166v-836q0 -303 -147.5 -464t-426 -161t-426 160t-147.5 465zM463 1829l137 45l213 -330h-156z" />
<glyph unicode="&#xda;" horiz-adv-x="1425" d="M139 598v836h170v-836q0 -236 98.5 -350.5t305.5 -114.5t307 114.5t100 350.5v836h166v-836q0 -303 -147.5 -464t-426 -161t-426 160t-147.5 465zM606 1544l213 330l137 -45l-194 -285h-156z" />
<glyph unicode="&#xdb;" horiz-adv-x="1425" d="M139 598v836h170v-836q0 -236 98.5 -350.5t305.5 -114.5t307 114.5t100 350.5v836h166v-836q0 -303 -147.5 -464t-426 -161t-426 160t-147.5 465zM418 1640l295 242l291 -242l-78 -94l-213 180l-215 -178z" />
<glyph unicode="&#xdc;" horiz-adv-x="1425" d="M139 598v836h170v-836q0 -236 98.5 -350.5t305.5 -114.5t307 114.5t100 350.5v836h166v-836q0 -303 -147.5 -464t-426 -161t-426 160t-147.5 465zM428 1683.5q0 38.5 27.5 67.5t66.5 29t66.5 -28t27.5 -69q0 -39 -27.5 -66.5t-66.5 -27.5t-66.5 28t-27.5 66.5zM815 1683 q0 41 27.5 69t66.5 28t67 -28t28 -69q0 -39 -28 -66.5t-67 -27.5t-66.5 28t-27.5 66z" />
<glyph unicode="&#xdd;" horiz-adv-x="1345" d="M35 1434h192l322 -471q33 -45 64.5 -92.5t45.5 -71.5l17 -23h4l14 23q14 23 45 68.5t64 90.5l325 476h183l-555 -811v-623h-168v623zM580 1544l213 330l137 -45l-195 -285h-155z" />
<glyph unicode="&#xde;" horiz-adv-x="1150" d="M158 0v1434h166v-291h249q250 0 386.5 -110.5t136.5 -313.5t-136.5 -310.5t-386.5 -107.5h-249v-301h-166zM324 453h256q350 0 350 266q0 268 -350 268h-256v-534z" />
<glyph unicode="&#xdf;" horiz-adv-x="1189" d="M158 0v1147h856l-258 -445v-4h12q156 0 259 -97t103 -257q0 -162 -103 -266.5t-277 -104.5q-178 0 -279 93l68 114q88 -72 196.5 -71.5t174 65t65.5 164.5q0 98 -65.5 160.5t-178.5 62.5h-143v137l170 295l-2 4h-97h-342v-997h-159z" />
<glyph unicode="&#xe0;" horiz-adv-x="1220" d="M47 0l469 1147h189l469 -1147h-168l-121 307h-553l-119 -307h-166zM358 1542l140 45l211 -330h-156zM387 446h442l-100 256q-117 293 -117 308h-6q0 -8 -123 -322z" />
<glyph unicode="&#xe1;" horiz-adv-x="1220" d="M47 0l469 1147h189l469 -1147h-168l-121 307h-553l-119 -307h-166zM387 446h442l-100 256q-117 293 -117 308h-6q0 -8 -123 -322zM504 1257l213 330l137 -45l-195 -285h-155z" />
<glyph unicode="&#xe2;" horiz-adv-x="1220" d="M47 0l469 1147h189l469 -1147h-168l-121 307h-553l-119 -307h-166zM375 1360l237 235l238 -237l-84 -90l-154 159l-153 -157zM387 446h442l-100 256q-117 293 -117 308h-6q0 -8 -123 -322z" />
<glyph unicode="&#xe3;" horiz-adv-x="1220" d="M47 0l469 1147h189l469 -1147h-168l-121 307h-553l-119 -307h-166zM315 1442q45 70 146 69q53 0 136 -35.5t138 -35.5q63 0 123 53l33 -123q-12 -20 -52 -41.5t-91 -21.5q-55 0 -139.5 34.5t-135.5 34.5q-74 0 -125 -57zM387 446h442l-100 256q-117 293 -117 308h-6 q0 -8 -123 -322z" />
<glyph unicode="&#xe4;" horiz-adv-x="1220" d="M47 0l469 1147h189l469 -1147h-168l-121 307h-553l-119 -307h-166zM326 1397q0 41 27.5 68.5t66.5 27.5t66.5 -28.5t27.5 -67.5t-28.5 -66.5t-67.5 -27.5t-65.5 27.5t-26.5 66.5zM387 446h442l-100 256q-117 293 -117 308h-6q0 -8 -123 -322zM711 1397q0 41 27.5 68.5 t68.5 27.5q39 0 66.5 -28.5t27.5 -67.5t-27.5 -66.5t-66.5 -27.5t-67.5 27.5t-28.5 66.5z" />
<glyph unicode="&#xe5;" horiz-adv-x="1220" d="M47 0l469 1147h189l469 -1147h-168l-121 307h-553l-119 -307h-166zM387 446h442l-100 256q-117 293 -117 308h-6q0 -8 -123 -322zM403 1419q0 86 58.5 138.5t151 52.5t150.5 -52.5t58 -138.5t-58 -139t-150.5 -53t-151 53t-58.5 139zM514 1419q0 -43 26.5 -68.5 t71.5 -25.5t72 25.5t27 68.5q0 41 -27 66.5t-72 25.5t-71.5 -25.5t-26.5 -66.5z" />
<glyph unicode="&#xe6;" horiz-adv-x="1669" d="M47 0l471 1147h240h798v-150h-645v-331h500v-146h-500v-370h656v-150h-809v299h-428l-119 -299h-164zM385 438h373v563h-152z" />
<glyph unicode="&#xe7;" horiz-adv-x="1320" d="M78 573q0 256 173 426t433 170q180 0 324.5 -86t214.5 -252l-152 -40q-135 231 -385 231q-195 0 -320.5 -126t-125.5 -323q0 -199 126 -324.5t318 -125.5q135 0 236.5 63.5t156.5 165.5l154 -41q-63 -133 -180 -220t-271 -107q164 -35 164 -166q0 -84 -63.5 -129 t-186.5 -45q-113 0 -170 32v115q51 -31 148 -31q147 0 147 78q0 86 -229 88v58q-227 31 -369.5 193.5t-142.5 395.5z" />
<glyph unicode="&#xe8;" horiz-adv-x="1075" d="M158 0v1147h805v-150h-646v-331h498v-146h-498v-370h656v-150h-815zM309 1542l140 45l213 -330h-158z" />
<glyph unicode="&#xe9;" horiz-adv-x="1075" d="M158 0v1147h805v-150h-646v-331h498v-146h-498v-370h656v-150h-815zM455 1257l213 330l137 -45l-195 -285h-155z" />
<glyph unicode="&#xea;" horiz-adv-x="1075" d="M158 0v1147h805v-150h-646v-331h498v-146h-498v-370h656v-150h-815zM266 1354l293 241l293 -241l-78 -94l-215 180l-215 -178z" />
<glyph unicode="&#xeb;" horiz-adv-x="1075" d="M158 0v1147h805v-150h-646v-331h498v-146h-498v-370h656v-150h-815zM276 1397q0 41 28 68.5t67 27.5t66.5 -28.5t27.5 -67.5t-28.5 -66.5t-67.5 -27.5t-66 27.5t-27 66.5zM662 1397q0 41 27.5 68.5t68.5 27.5q39 0 66.5 -28.5t27.5 -67.5t-27.5 -66.5t-66.5 -27.5 t-67.5 27.5t-28.5 66.5z" />
<glyph unicode="&#xec;" horiz-adv-x="475" d="M-14 1542l137 45l213 -330h-156zM158 0v1147h159v-1147h-159z" />
<glyph unicode="&#xed;" horiz-adv-x="475" d="M131 1257l213 330l137 -45l-194 -285h-156zM158 0v1147h159v-1147h-159z" />
<glyph unicode="&#xee;" horiz-adv-x="475" d="M2 1360l238 235l235 -237l-82 -90l-153 159l-156 -157zM158 0v1147h159v-1147h-159z" />
<glyph unicode="&#xef;" horiz-adv-x="475" d="M20 1397q0 41 28 68.5t67 27.5t66.5 -28.5t27.5 -67.5t-28.5 -66.5t-67.5 -27.5t-66 27.5t-27 66.5zM158 0v1147h159v-1147h-159zM270 1397q0 41 28 68.5t66.5 27.5t66.5 -28.5t28 -67.5t-28 -66.5t-66.5 -27.5t-66.5 27.5t-28 66.5z" />
<glyph unicode="&#xf0;" horiz-adv-x="1265" d="M23 518v144h135v485h395q283 0 459 -156.5t176 -421t-174 -417t-451 -152.5h-405v518h-135zM317 150h242q211 0 339 107.5t128 312t-129 316t-346 111.5h-234v-335h355v-144h-355v-368z" />
<glyph unicode="&#xf1;" horiz-adv-x="1290" d="M158 0v1147h164l649 -889h4v8v19.5v30t-1 39t-1 46v50v53.5v643h160v-1147h-164l-652 903h-4v-8q0 -8 1 -21.5t1 -31v-41t1 -49t1 -54v-57.5v-641h-159zM340 1442q45 70 145 69q53 0 136.5 -35.5t138.5 -35.5q64 0 123 53l32 -123q-12 -20 -52 -41.5t-91 -21.5 q-55 0 -139 34.5t-135 34.5q-74 0 -125 -57z" />
<glyph unicode="&#xf2;" horiz-adv-x="1361" d="M78 571q0 260 173 429t429 169t429 -169t173 -429q0 -256 -173 -426t-429 -170t-429 170t-173 426zM240 571q0 -197 126 -322.5t314 -125.5t314 126t126 322q0 199 -125 325t-315.5 126t-315 -126t-124.5 -325zM428 1542l139 45l213 -330h-155z" />
<glyph unicode="&#xf3;" horiz-adv-x="1361" d="M78 571q0 260 173 429t429 169t429 -169t173 -429q0 -256 -173 -426t-429 -170t-429 170t-173 426zM240 571q0 -197 126 -322.5t314 -125.5t314 126t126 322q0 199 -125 325t-315.5 126t-315 -126t-124.5 -325zM573 1257l213 330l138 -45l-195 -285h-156z" />
<glyph unicode="&#xf4;" horiz-adv-x="1361" d="M78 571q0 260 173 429t429 169t429 -169t173 -429q0 -256 -173 -426t-429 -170t-429 170t-173 426zM240 571q0 -197 126 -322.5t314 -125.5t314 126t126 322q0 199 -125 325t-315.5 126t-315 -126t-124.5 -325zM385 1354l293 241l293 -241l-78 -94l-215 180l-215 -178z " />
<glyph unicode="&#xf5;" horiz-adv-x="1361" d="M78 571q0 260 173 429t429 169t429 -169t173 -429q0 -256 -173 -426t-429 -170t-429 170t-173 426zM240 571q0 -197 126 -322.5t314 -125.5t314 126t126 322q0 199 -125 325t-315.5 126t-315 -126t-124.5 -325zM385 1442q45 70 145 69q53 0 136.5 -35.5t138.5 -35.5 q64 0 123 53l33 -123q-12 -20 -52.5 -41.5t-91.5 -21.5q-55 0 -139 34.5t-135 34.5q-74 0 -125 -57z" />
<glyph unicode="&#xf6;" horiz-adv-x="1361" d="M78 571q0 260 173 429t429 169t429 -169t173 -429q0 -256 -173 -426t-429 -170t-429 170t-173 426zM240 571q0 -197 126 -322.5t314 -125.5t314 126t126 322q0 199 -125 325t-315.5 126t-315 -126t-124.5 -325zM395 1397q0 41 28 68.5t66.5 27.5t66.5 -28.5t28 -67.5 t-29 -66.5t-67.5 -27.5t-65.5 27.5t-27 66.5zM780 1397q0 41 28 68.5t69 27.5q39 0 66.5 -28.5t27.5 -67.5t-28 -66.5t-66.5 -27.5t-67.5 27.5t-29 66.5z" />
<glyph unicode="&#xf7;" d="M295 520v142h778v-142h-778zM573 217q0 45 30 73.5t81 28.5q53 0 82 -29.5t29 -72.5q0 -45 -29 -74.5t-82 -29.5q-51 0 -81 29.5t-30 74.5zM573 975q0 45 30 73.5t81 28.5q53 0 82 -29.5t29 -72.5q0 -45 -29 -75t-82 -30q-51 0 -81 30t-30 75z" />
<glyph unicode="&#xf8;" horiz-adv-x="1361" d="M78 571q0 260 173 429t429 169q172 0 305 -77l121 155l119 -88l-121 -153q178 -172 178 -435q0 -256 -173 -426t-429 -170q-174 0 -313 82l-117 -153l-119 90l119 151q-172 172 -172 426zM240 571q0 -178 106 -301l547 701q-98 51 -213 51q-190 0 -315 -126t-125 -325z M461 178q100 -55 219 -55q188 0 314 126t126 322q0 186 -110 310z" />
<glyph unicode="&#xf9;" horiz-adv-x="1251" d="M139 494v653h162v-670q0 -354 325.5 -354t325.5 354v670h160v-653q0 -258 -126 -388.5t-361.5 -130.5t-360.5 130.5t-125 388.5zM377 1542l139 45l213 -330h-158z" />
<glyph unicode="&#xfa;" horiz-adv-x="1251" d="M139 494v653h162v-670q0 -354 325.5 -354t325.5 354v670h160v-653q0 -258 -126 -388.5t-361.5 -130.5t-360.5 130.5t-125 388.5zM522 1257l213 330l137 -45l-194 -285h-156z" />
<glyph unicode="&#xfb;" horiz-adv-x="1251" d="M139 494v653h162v-670q0 -354 325.5 -354t325.5 354v670h160v-653q0 -258 -126 -388.5t-361.5 -130.5t-360.5 130.5t-125 388.5zM334 1354l293 241l293 -241l-78 -94l-215 180l-215 -178z" />
<glyph unicode="&#xfc;" horiz-adv-x="1251" d="M139 494v653h162v-670q0 -354 325.5 -354t325.5 354v670h160v-653q0 -258 -126 -388.5t-361.5 -130.5t-360.5 130.5t-125 388.5zM344 1397q0 41 27.5 68.5t66.5 27.5t66.5 -28.5t27.5 -67.5t-28.5 -66.5t-67.5 -27.5t-65.5 27.5t-26.5 66.5zM729 1397q0 41 28.5 68.5 t67.5 27.5t67 -28.5t28 -67.5t-28 -66.5t-67 -27.5t-67.5 27.5t-28.5 66.5z" />
<glyph unicode="&#xfd;" horiz-adv-x="1107" d="M35 1147h182l184 -281q41 -59 80 -119.5t60 -91.5l18 -30h4l19 30q20 29 61 91.5t80 121.5l182 279h168l-440 -674v-473h-160v473zM461 1257l213 330l137 -45l-195 -285h-155z" />
<glyph unicode="&#xfe;" horiz-adv-x="972" d="M158 0v1147h159v-244h160q440 0 441 -328q0 -317 -441 -317h-160v-258h-159zM317 389h164q141 0 208 43t67 141q0 96 -67.5 140.5t-207.5 44.5h-164v-369z" />
<glyph unicode="&#xff;" horiz-adv-x="1107" d="M35 1147h182l184 -281q41 -59 80 -119.5t60 -91.5l18 -30h4l19 30q20 29 61 91.5t80 121.5l182 279h168l-440 -674v-473h-160v473zM281 1397q0 41 27.5 68.5t68.5 27.5q39 0 65.5 -27.5t26.5 -68.5q0 -39 -27.5 -66.5t-66.5 -27.5t-66.5 27.5t-27.5 66.5zM668 1397 q0 41 27.5 68.5t66.5 27.5t66.5 -27.5t27.5 -68.5q0 -39 -27.5 -66.5t-66.5 -27.5t-66.5 27.5t-27.5 66.5z" />
<glyph unicode="&#x152;" horiz-adv-x="2041" d="M78 716.5q0 323.5 212 524.5t537 201q92 0 150 -8h950v-156h-797v-449h629v-155h-629v-518h801v-156h-952q-49 -8 -154 -8q-326 0 -536.5 200.5t-210.5 524zM246 719q0 -264 158.5 -420t422.5 -156q78 0 140 21v1110q-59 16 -140 16q-264 0 -422.5 -153.5t-158.5 -417.5z " />
<glyph unicode="&#x153;" horiz-adv-x="1720" d="M78 573.5q0 260.5 171 420t439 159.5q82 0 133 -6h781v-150h-646v-331h498v-146h-498v-370h656v-150h-795q-43 -6 -131 -6q-266 0 -437 159.5t-171 420zM240 575q0 -199 122.5 -317.5t327.5 -118.5q55 0 113 11v847q-57 10 -113 11q-205 0 -327.5 -118t-122.5 -315z" />
<glyph unicode="&#x178;" horiz-adv-x="1345" d="M35 1434h192l322 -471q33 -45 64.5 -92.5t45.5 -71.5l17 -23h4l14 23q14 23 45 68.5t64 90.5l325 476h183l-555 -811v-623h-168v623zM401 1683.5q0 38.5 28 67.5t67 29t66.5 -28t27.5 -69q0 -39 -27.5 -66.5t-66.5 -27.5t-67 28t-28 66.5zM788 1683q0 41 28 69t67 28 t66.5 -29t27.5 -67.5t-27.5 -66.5t-66.5 -28t-67 28t-28 66z" />
<glyph unicode="&#x2c6;" horiz-adv-x="1091" d="M252 1640l295 242l291 -242l-78 -94l-213 180l-215 -178z" />
<glyph unicode="&#x2dc;" horiz-adv-x="1091" d="M256 1729q45 70 145 69q53 0 136.5 -36t138.5 -36q64 1 123 54l32 -123q-45 -63 -143 -64q-55 0 -139 35t-135 35q-74 0 -125 -57z" />
<glyph unicode="&#x2000;" horiz-adv-x="948" />
<glyph unicode="&#x2001;" horiz-adv-x="1896" />
<glyph unicode="&#x2002;" horiz-adv-x="948" />
<glyph unicode="&#x2003;" horiz-adv-x="1896" />
<glyph unicode="&#x2004;" horiz-adv-x="632" />
<glyph unicode="&#x2005;" horiz-adv-x="474" />
<glyph unicode="&#x2006;" horiz-adv-x="316" />
<glyph unicode="&#x2007;" horiz-adv-x="316" />
<glyph unicode="&#x2008;" horiz-adv-x="237" />
<glyph unicode="&#x2009;" horiz-adv-x="379" />
<glyph unicode="&#x200a;" horiz-adv-x="105" />
<glyph unicode="&#x2010;" horiz-adv-x="1189" d="M205 520v142h778v-142h-778z" />
<glyph unicode="&#x2011;" horiz-adv-x="1189" d="M205 520v142h778v-142h-778z" />
<glyph unicode="&#x2012;" horiz-adv-x="1189" d="M205 520v142h778v-142h-778z" />
<glyph unicode="&#x2013;" d="M205 520v142h956v-142h-956z" />
<glyph unicode="&#x2014;" horiz-adv-x="2050" d="M205 520v142h1638v-142h-1638z" />
<glyph unicode="&#x2018;" horiz-adv-x="458" d="M104 1196q0 76 50.5 153.5t136.5 106.5l67 -78q-45 -14 -79.5 -55t-40.5 -80q41 6 67.5 -17.5t26.5 -66.5q0 -41 -30 -68.5t-77 -27.5q-55 0 -88 36t-33 97z" />
<glyph unicode="&#x2019;" horiz-adv-x="458" d="M100 1143q43 14 78 55t43 80q-43 -6 -68.5 17.5t-25.5 66.5q0 41 29.5 68.5t76.5 27.5q55 0 87 -36t32 -97q0 -76 -50 -153.5t-134 -106.5z" />
<glyph unicode="&#x201a;" horiz-adv-x="458" d="M100 -139q43 14 78 55t43 80q-43 -6 -68.5 17.5t-25.5 64.5q0 43 28.5 69.5t77.5 26.5q55 0 87 -35t32 -96q0 -76 -50 -153.5t-134 -108.5z" />
<glyph unicode="&#x201c;" horiz-adv-x="833" d="M100 1196q0 76 50.5 153.5t136.5 106.5l65 -78q-43 -14 -78 -55t-41 -80q41 6 67 -17.5t26 -66.5q0 -41 -29 -68.5t-76 -27.5q-55 0 -88 36t-33 97zM475 1196q0 76 50 153.5t137 106.5l67 -78q-43 -14 -78 -55t-43 -80q43 6 68.5 -17.5t25.5 -66.5q0 -41 -29.5 -68.5 t-76.5 -27.5q-55 0 -88 36t-33 97z" />
<glyph unicode="&#x201d;" horiz-adv-x="833" d="M100 1143q43 14 78 55t43 80q-43 -6 -68.5 17.5t-25.5 66.5q0 41 29.5 68.5t76.5 27.5q55 0 87 -36t32 -97q0 -76 -50 -153.5t-134 -106.5zM475 1143q45 14 80 55t41 80q-41 -6 -66.5 17.5t-25.5 66.5q0 41 28.5 68.5t75.5 27.5q55 0 88 -36t33 -97q0 -76 -50 -153.5 t-136 -106.5z" />
<glyph unicode="&#x201e;" horiz-adv-x="806" d="M100 -139q43 14 78 55t43 80q-43 -6 -68.5 17.5t-25.5 64.5q0 43 28.5 69.5t77.5 26.5q55 0 87 -35t32 -96q0 -76 -50 -153.5t-134 -108.5zM449 -139q43 14 77.5 55t42.5 80q-43 -6 -68.5 17.5t-25.5 64.5q0 43 28.5 69.5t78.5 26.5q55 0 87.5 -35t32.5 -96 q0 -76 -50 -153.5t-136 -108.5z" />
<glyph unicode="&#x2022;" horiz-adv-x="651" d="M158 584q0 70 48 115.5t119.5 45.5t120 -46t48.5 -115q0 -72 -48.5 -118t-120 -46t-119.5 46t-48 118z" />
<glyph unicode="&#x2026;" horiz-adv-x="1421" d="M117 63.5q0 36.5 24.5 60t67.5 23.5t66.5 -23.5t23.5 -60.5q0 -39 -23.5 -62.5t-66.5 -23.5t-67.5 25t-24.5 61.5zM608 63.5q0 36.5 24.5 60t67.5 23.5t67 -23.5t24 -60.5q0 -39 -24 -62.5t-67 -23.5t-67.5 25t-24.5 61.5zM1120 63.5q0 36.5 24.5 60t67.5 23.5t67 -23.5 t24 -60.5q0 -39 -24 -62.5t-67 -23.5t-67.5 25t-24.5 61.5z" />
<glyph unicode="&#x202f;" horiz-adv-x="379" />
<glyph unicode="&#x2039;" horiz-adv-x="823" d="M123 571l481 480l96 -97l-393 -381v-6l393 -381l-96 -96z" />
<glyph unicode="&#x203a;" horiz-adv-x="823" d="M123 186l393 381v6l-393 381l96 97l481 -480l-481 -481z" />
<glyph unicode="&#x205f;" horiz-adv-x="474" />
<glyph unicode="&#x20ac;" horiz-adv-x="1232" d="M78 395v125h86l-2 64v41h-82v123h94q35 207 161 314t335 107q180 0 306 -80.5t161 -238.5l-156 -43q-23 90 -96.5 153.5t-212.5 63.5q-268 0 -324 -276h354v-123h-368l-2 -39q0 -12 1 -34t1 -32h368v-125h-350q61 -270 336 -270q223 -1 299 192l156 -43 q-47 -131 -163 -215t-298 -84q-207 0 -336 106.5t-168 313.5h-100z" />
<glyph unicode="&#x2122;" horiz-adv-x="1605" d="M76 1327v107h563v-107h-225v-559h-113v559h-225zM770 768v666h139l146 -283q14 -25 28.5 -52.5t22.5 -41.5l6 -13h2q6 6 53 105l142 285h139v-666h-111v270v254h-2l-10 -20q-10 -20 -27.5 -56t-33.5 -67l-119 -229h-70l-119 229q-16 31 -35.5 67.5t-31.5 57.5l-10 20h-2 l2 -256v-270h-109z" />
<glyph unicode="&#x25fc;" horiz-adv-x="1146" d="M0 0v1147h1147v-1147h-1147z" />
</font>
</defs>
</svg>
